<?xml version="1.0" encoding="utf-8"?>
<!-- Generator: Adobe Illustrator 23.0.0, SVG Export Plug-In . SVG Version: 6.00 Build 0)  -->
<svg version="1.1" id="Layer_1" xmlns="http://www.w3.org/2000/svg" xmlns:xlink="http://www.w3.org/1999/xlink" x="0px" y="0px"
	 viewBox="0 0 500 500" style="enable-background:new 0 0 500 500;" xml:space="preserve">
<style type="text/css">
	.st0{fill:#ffffff;}
</style>
<g id="layer1">
	<path id="path3338" class="st0" d="M265.6,25.6c-0.5,0-1.1,0.3-1.7,0.3c-0.9,0.4,0.2,1.5-0.7,2c-0.1,0.9,0.1,0.7-0.7,0.3
		c-0.7-0.2-0.6,1.6-1.2,1c0.2-0.9-1.3-2.1-1.7-0.9c0,0.6-1,1-0.4,1.7c0.4,0.3,1.1,1.1,0.4,1.2c-0.6,0.3-1.2,1.2-1.8,0.5
		c-0.8-0.3-1.4,0.7-1.1,1.4c-0.4-0.7-0.3-1.1,0.3-1.5c0.4-0.6,0.4-2.3-0.7-1.8c-0.4,0.4-0.4,0.9-1,0.9c-0.6,0.2-0.2,1.8-0.6,0.8
		c-0.7-1-1.4,0.1-1.8,0.6c-0.7-0.6-1.5,0.3-1.2,1c-1,0.7,1.3,1.4,0.3,1.9c-1.2,0.3-1.6-1.9-2.8-1c-0.4,0.2-0.6,1.8-0.9,1.2
		c-0.3-0.4-0.5-2.1-1.3-1.5c-0.1,1.5-0.8,2.9-2.1,3.7c-0.3-0.9-1.4-1.1-1.8-0.2c-0.4,0.8-0.8-0.6-1.5-0.1c-1.3,0.7-0.2,3.2-2.2,3.1
		c-0.6,0.1-0.4,1.8-0.9,0.9c-0.8-1-1.8,0.3-1.9,1.2c-0.4,1.5,0.1,3.2-0.8,4.6c-0.9-1-0.1-3.1-1.6-3.5c-0.8-0.1-1.1,1.4-1.8,0.8
		c-0.8,0.2-1.3-0.8-2.1-0.4c-0.5,0.1-0.7,2-0.9,1c0-1.1-0.9-2.7-2.1-1.9c-0.4,0.3-0.7,1-0.8,0.1c-0.5-0.9-1.6-1.5-1.8-2.5
		c-0.8-0.8-1.3,0.6-1.8,1c-0.8-0.3-1.6-1.6-2.5-0.6c-1,0.8-0.8,2.3-1.2,3.2c-1,0-0.8,1.5,0,1.6c-0.2,0.7-0.9,1-1.2,1.6
		c0-1-1.1-0.7-1.7-0.7c0.3-0.9-1.4-0.6-1.1-1.4c-0.3-1.2,0.5,0.1,1,0c1.2-0.3-0.4-1.3-0.2-2c0.2-1.3-1.3-2.2-2.2-1.3
		c-0.1-0.9-1-1.5-1.7-1.7c-0.8-1-2.3-0.1-3.2,0.3c-0.3,0.7-1.3,0.3-1.5,1.2c-1.2,0-0.2,1.6-0.8,2.2c-0.3,1.3-0.5,2.6-1.2,3.7
		c-0.2,0.9,1.1,0.4,0.9,0.9c0.1,0.6,0.3,1.4-0.6,1.6c-0.7-0.9-1.6,0.3-1.3,1.1c0,0.3,0.1,0.6,0.2,0.8c-0.5-0.3-1.2,0-1.4,0.7
		c-1.3-0.8-2-2.2-2.1-3.7c-0.7-0.6-1,1-1.3,1.5c-0.3,0.6-0.5-1-0.9-1.2c-1.2-0.9-1.6,1.2-2.8,1c-0.9-0.5,1.4-1.2,0.3-1.9
		c0.2-0.7-0.5-1.6-1.2-1c-0.4-0.5-1.1-1.6-1.8-0.6c-0.4,0.9,0-0.6-0.6-0.8c-0.6,0-0.6-0.5-1-0.9c-1.1-0.5-1.1,1.2-0.7,1.8
		c0.6,0.4,0.7,0.8,0.3,1.5c0.3-0.7-0.3-1.7-1.1-1.4c-0.6,0.7-1.3-0.3-1.8-0.5c-0.7-0.1,0-0.9,0.4-1.2c0.5-0.7-0.5-1.1-0.4-1.7
		c-0.4-1.3-1.9-0.1-1.7,0.9c-0.6,0.5-0.4-1.2-1.2-1c-0.8,0.4-0.6,0.6-0.7-0.3c-0.9-0.4,0.2-1.5-0.7-2c-0.9,0-1.8-0.6-2.6,0
		c-0.9,0.6-1,1.8-0.1,2.3c-0.8,0.4-1.2,1.6-0.5,2.3c0.8,0.2,0.4,0.7,0.5,1.3c-0.3,0.9-1.2,0.6-1.6-0.1c-0.3-0.6-1.1-0.3-0.9-1.2
		c0.7-0.6,1.6-2.2,0.4-2.8c-1.8,0.3-2,6.6-0.9,8.2c1.1,0.2-0.7,0.3-0.4,1c0.4,1.4,2,0,2.5-0.7c0.8,0.8,1.7-0.7,1.6-1.5
		c0.8,0.5,1.4-0.5,1.1-1.2c-0.6-1.2,0.4-0.3,0.9-0.8c0.2-0.9,1.1,0.2,1.4,0.6c1.1,1.2-0.9,1.3-1.5,1.9c-1.3,1-0.5,3,0.9,3.2
		c0,0.7-0.6,0.6-0.9,0c-0.8-0.9-2,0.7-2.6-0.4c-0.4-0.9-1.7-1-1.8,0.1c0.1,1.1-1.3,1.7-0.9,2.8c0,0.7,0.9,1.1-0.2,1.2
		c-0.4-0.5-1-1.7-1.9-1c-0.7,0.2-1.1,2.1-1.4,0.8c-0.2-0.9-1.4-1.1-1.6-0.1c0.1,1.3-0.6-0.3-0.9-0.7c-0.9-1.1-1.6,1.3-2.5,0.7
		c-0.9-0.4-2.9-0.4-2.6,1.1c0,1,0.7,1,1.4,1.5c0.6,0.9-0.4,0-0.8,0.5c-0.1-0.2-0.3-0.4-0.5-0.5c-0.1-0.4-0.3-0.7-0.7-1
		c-0.8-0.7-1.7,0-2.6,0c-0.9,0.4,0.2,1.5-0.7,2c-0.1,0.9,0.1,0.7-0.7,0.3c-0.7-0.2-0.6,1.6-1.2,1c0.2-0.9-1.3-2.1-1.7-0.9
		c0,0.6-1,1-0.4,1.7c0.4,0.3,1.1,1.1,0.4,1.2c-0.6,0.3-1.2,1.2-1.8,0.5c-0.8-0.3-1.4,0.7-1.1,1.4c-0.4-0.7-0.3-1.1,0.3-1.5
		c0.4-0.6,0.4-2.3-0.7-1.8c-0.4,0.4-0.4,0.9-1,0.9c-0.6,0.2-0.2,1.8-0.6,0.8c-0.7-1-1.4,0.1-1.8,0.6c-0.7-0.6-1.5,0.3-1.2,1
		c-1,0.7,1.3,1.4,0.3,1.9c-1.2,0.3-1.6-1.9-2.8-1c-0.4,0.2-0.6,1.8-0.9,1.2c-0.3-0.4-0.5-2.1-1.3-1.5c-0.1,1.5-0.8,2.9-2.1,3.7
		c-0.3-0.9-1.4-1.1-1.8-0.2c-0.4,0.8-0.8-0.6-1.5-0.1c-1.3,0.7-0.2,3.2-2.2,3.1c-0.6,0.1-0.4,1.8-0.9,0.9c-0.8-1-1.8,0.3-1.9,1.2
		c-0.4,1.5,0.1,3.2-0.8,4.6c-0.9-1-0.1-3.1-1.6-3.5c-0.8-0.1-1.1,1.4-1.8,0.8c-0.8,0.2-1.3-0.8-2.1-0.4c-0.5,0.1-0.7,2-0.9,1
		c0-1.1-0.9-2.7-2.1-1.9c-0.4,0.3-0.7,1-0.8,0.1c-0.5-0.9-1.6-1.5-1.8-2.5c-0.8-0.8-1.3,0.6-1.8,1c-0.8-0.3-1.6-1.6-2.5-0.6
		c-1,0.8-0.8,2.3-1.2,3.2c-1,0-0.8,1.5,0,1.6c-0.2,0.7-0.9,1-1.2,1.6c0-1-1.1-0.7-1.7-0.7c0.3-0.9-1.4-0.6-1.1-1.4
		c-0.3-1.2,0.5,0.1,1,0c1.2-0.3-0.4-1.3-0.2-2c0.2-1.3-1.3-2.2-2.2-1.3c-0.1-0.9-1-1.5-1.7-1.7c-0.8-1-2.3-0.1-3.2,0.3
		c-0.3,0.7-1.3,0.3-1.5,1.2c-1.2,0-0.2,1.6-0.8,2.2c-0.3,1.3-0.5,2.6-1.2,3.7c-0.2,0.9,1.1,0.4,0.9,0.9c0.1,0.6,0.3,1.4-0.6,1.6
		c-0.7-0.9-1.6,0.3-1.3,1.1c0,0.7,0.3,1.2,1,1.4c0.6,0.2,1.2,1.4,0.8,1.8c-0.7-0.6-1.5,0-1.6,0.7c-0.9,0.5-1.8,1.3-1.6,2.5
		c-0.3,0.9-0.1,2.9,1.3,2.4c0.7-0.2,0.3-1.5,1.1-1c1.1-0.1,2,0.5,2.7,1.3c0,1.1-0.5,2.5-1.7,2.8c-0.9,1.1,0.4,2.8,1.7,2.4
		c0.5,0.1,1,0.1,1.6,0.1c-0.1,0.1-0.1,0.3-0.1,0.5c0.1,1.1,2.2,1.1,1.7,2.3c0.1,1.2,1.5,1.9,2.4,2c-0.5,0.4-0.6,1.2-0.6,1.7
		c-0.8,0.5-0.3-0.8-0.9-1c-0.5-0.7-1.5-0.2-1.7-0.1c-1,0-0.1-1-0.9-1.1c-0.7,0.5-2.6,0.5-2.1,1.8c0.1,1,0.5,2.3,1.6,2.3
		c0.2,0.6,0.9,2,1.6,1.1c0.4-1.1-0.3,0.9-0.3,1.3c-0.5,0.7-2.1,1.8-1.1,2.7c-1.8,0.1-4.4,0.3-4.8,2.4c0.2,0.7-0.3,1.2-0.6,0.9
		c0.7-1-1.1-2-1.5-0.8c-0.3,0.6,0.2,1.9,1,1.5c-0.5,1.4,1.5,1,1.7,0.3c0.4,0.4,1.4-0.4,0.8,0.5c-0.6,0.4-1.4,0.5-1.4,1.5
		c-0.4,1.5,1.7,1.5,2.6,1.1c0.9-0.6,1.6,1.8,2.5,0.7c0.3-0.5,0.9-2,0.9-0.7c0.2,1,1.4,0.8,1.6-0.1c0.3-1.3,0.7,0.6,1.4,0.8
		c0.9,0.7,1.5-0.5,1.9-1c1,0.1,0.1,0.5,0.2,1.2c-0.3,1.1,1.1,1.7,0.9,2.8c0.1,1.1,1.4,1,1.8,0.1c0.5-1.1,1.8,0.5,2.6-0.4
		c0.3-0.6,0.9-0.7,0.9,0c-1.5,0.3-2.3,2.3-0.9,3.2c0.6,0.6,2.6,0.7,1.5,1.9c-0.3,0.4-1.2,1.5-1.4,0.6c-0.5-0.5-1.5,0.4-0.9-0.8
		c0.3-0.7-0.3-1.6-1.1-1.2c0-0.8-0.9-2.3-1.6-1.5c-0.5-0.7-2.1-2-2.5-0.7c-0.3,0.8,1.5,0.9,0.4,1c-1.1,1.6-0.9,7.8,0.9,8.2
		c1.2-0.6,0.3-2.1-0.4-2.8c-0.2-0.9,0.6-0.6,0.9-1.2c0.4-0.7,1.3-1,1.6-0.1c-0.1,0.6,0.3,1.2-0.5,1.3c-0.7,0.6-0.3,1.9,0.5,2.3
		c-1,0.6-0.8,1.8,0.1,2.3c0.8,0.7,1.7,0,2.6,0c0.9-0.4-0.2-1.5,0.7-2c0.1-0.9-0.1-0.7,0.7-0.3c0.7,0.2,0.6-1.6,1.2-1
		c-0.2,0.9,1.3,2.1,1.7,0.9c0-0.6,1-1,0.4-1.7c-0.4-0.3-1.1-1.1-0.4-1.2c0.6-0.3,1.2-1.2,1.8-0.5c0.8,0.3,1.4-0.7,1.1-1.4
		c0.4,0.7,0.3,1.1-0.3,1.5c-0.4,0.6-0.4,2.3,0.7,1.8c0.4-0.4,0.4-0.9,1-0.9c0.6-0.2,0.2-1.8,0.6-0.8c0.3,0.5,0.7,0.5,1,0.3
		c0.1,0.1,0.2,0.1,0.2,0.1c0.4-0.2-0.2,0.3,0.1,0.5c0.5,0.4,0.7-0.5,0.7-0.9c0.3,0,0.4-0.2,0.4-0.4c0.4-0.1,0.7-0.7,0.6-1.2
		c0.4-0.2,0.3-0.5,0.1-0.8c0,0,0,0,0,0c0.7,0.1,0,0.7-0.1,1c-0.2,0.7,0.6,1.2,1.2,0.9c0.2,0.3-0.1,0.4-0.3,0.2
		c-0.5-0.1-0.5,0.8-1,0.5c-0.4-0.2-0.9,0.1-0.6,0.5c0.3,0.4,0,0.9,0.4,1.2c0.2,0.2,0.6,0.2,0.2,0.5c-0.3-0.1-0.8-0.3-0.9,0.1
		c-0.2,0.2,0.1,1-0.3,0.6c-0.3-0.3-0.8,0-0.6,0.4c0.4,0.4-0.3,0.1-0.5,0c-0.6-0.2-0.2,0.9-0.7,0.9c-0.4,0.1-1.2,0.6-0.6,1.1
		c0.2,0.4,0.5,0.2,0.9,0.2c0.5,0.2-0.1,0.1-0.2,0.4c-0.1-0.1-0.2-0.1-0.3,0c-0.1-0.1-0.3-0.2-0.5-0.2c-0.5,0-0.6,0.4-0.9,0.7
		c-0.2,0.4,0.5,0.5,0.2,0.9c0.2,0.4,0.2,0.2-0.2,0.3c-0.3,0.1,0.2,0.7-0.2,0.7c-0.2-0.4-1-0.4-0.8,0.1c0.2,0.2-0.1,0.6,0.3,0.7
		c0.2,0,0.7,0.1,0.4,0.3c-0.1,0.2-0.1,0.8-0.5,0.7c-0.4,0.1-0.3,0.6,0,0.8c-0.3-0.1-0.4-0.3-0.3-0.6c0-0.3-0.4-0.9-0.7-0.5
		c0,0.2,0.1,0.4-0.1,0.6c-0.2,0.2,0.4,0.7,0,0.5c-0.5-0.2-0.5,0.4-0.5,0.7c-0.4,0-0.5,0.5-0.2,0.7c-0.2,0.5,0.8,0.2,0.6,0.6
		c-0.4,0.4-1-0.3-1.2,0.4c-0.1,0.2,0.2,0.8,0,0.6c-0.2-0.1-0.7-0.6-0.8-0.2c0.4,0.6,0.4,1.2,0.2,1.9c-0.3-0.3-0.8,0-0.7,0.4
		c0.1,0.4-0.4,0-0.6,0.4c-0.3,0.6,0.7,1.2,0,1.7c-0.2,0.2,0.3,0.7-0.1,0.6c-0.6-0.1-0.6,0.6-0.4,0.9c0.2,0.7,0.9,1.1,0.9,1.9
		c-0.6-0.1-0.8-1.1-1.5-0.8c-0.3,0.2,0,0.8-0.5,0.8c-0.2,0.3-0.7,0-0.9,0.4c-0.2,0.2,0.3,0.9-0.1,0.6c-0.3-0.4-1-0.8-1.3-0.1
		c-0.1,0.2,0,0.5-0.3,0.3c-0.4-0.2-1-0.1-1.3-0.4c-0.5-0.1-0.3,0.6-0.4,0.8c-0.4,0.1-1-0.2-1,0.4c-0.1,0.5,0.3,1.1,0.4,1.5
		c-0.3,0.3,0.1,0.7,0.4,0.6c0.1,0.3-0.1,0.6,0,0.9c-0.3-0.4-0.6,0-0.8,0.2c-0.2-0.4-0.6,0.1-0.8-0.2c-0.4-0.4,0.2-0.1,0.4-0.3
		c0.3-0.4-0.5-0.4-0.6-0.7c-0.2-0.5-1-0.5-1.1,0.1c-0.3-0.3-0.7-0.3-1-0.2c-0.5-0.2-0.9,0.5-1.1,0.9c0.1,0.3-0.4,0.4-0.2,0.8
		c-0.4,0.3,0.3,0.6,0.3,1c0.2,0.5,0.5,1.1,0.5,1.6c0.1,0.4,0.5-0.1,0.6,0.1c0.2,0.2,0.5,0.4,0.2,0.7c-0.5-0.1-0.5,0.5-0.2,0.7
		c0.2,0.3,0.4,0.3,0.7,0.2c0.3-0.1,0.8,0.2,0.7,0.4c-0.4-0.1-0.5,0.4-0.4,0.7c-0.2,0.4-0.3,0.9,0.1,1.3c0.1,0.4,0.7,1,1.1,0.5
		c0.2-0.3-0.3-0.6,0.2-0.6c0.3-0.3,0.8-0.4,1.3-0.2c0.3,0.4,0.5,1,0.1,1.4c0,0.6,0.9,0.9,1.2,0.4c0.2-0.1,0.4-0.2,0.6-0.4
		c0,0.1,0,0.1,0.1,0.2c0.3,0.4,1.1-0.2,1.2,0.4c0.3,0.4,1,0.3,1.4,0.1c-0.1,0.3,0.1,0.6,0.2,0.8c-0.1,0.4-0.3-0.2-0.6-0.1
		c-0.3-0.1-0.6,0.3-0.6,0.4c-0.4,0.3-0.3-0.3-0.6-0.2c-0.1,0.4-0.8,0.8-0.3,1.2c0.3,0.3,0.8,0.7,1.2,0.4c0.2,0.2,0.8,0.5,0.8,0
		c-0.1-0.5,0.1,0.4,0.2,0.6c0,0.4-0.3,1.2,0.3,1.3c-0.6,0.5-1.5,1.2-1.1,2.1c0.2,0.2,0.2,0.5,0,0.5c0-0.6-0.9-0.4-0.8,0.1
		c0.1,0.3,0.5,0.6,0.7,0.3c0.2,0.6,0.8,0,0.7-0.3c0.2,0.1,0.4-0.5,0.4,0c-0.1,0.3-0.4,0.5-0.1,0.9c0.3,0.6,1,0.1,1.2-0.3
		c0.2-0.4,1,0.3,1.1-0.4c0-0.2-0.2-1,0.1-0.5c0.3,0.3,0.7-0.1,0.6-0.4c-0.2-0.5,0.4,0,0.7-0.1c0.5,0,0.4-0.6,0.4-0.8
		c0.4-0.2,0.2,0.1,0.4,0.4c0.2,0.5,0.8,0.3,1,0.8c0.3,0.4,0.8,0,0.7-0.4c-0.1-0.5,0.8-0.3,0.8-0.8c0-0.3,0.1-0.5,0.3-0.2
		c-0.5,0.5-0.2,1.4,0.5,1.4c0.4,0.1,1.1-0.4,1,0.3c0,0.2-0.1,0.8-0.4,0.6c-0.3-0.1-0.4,0.5-0.5-0.1c-0.1-0.3-0.5-0.5-0.7-0.1
		c-0.2-0.3-0.9-0.6-1-0.1c-0.3-0.1-1.3-0.2-1.1,0.4c0.1,0.3,0.8-0.1,0.4,0.3c0,0.9,1.7,3,2.4,2.7c0.3-0.5-0.4-0.8-0.8-0.9
		c-0.3-0.3,0.1-0.4,0-0.7c0-0.3,0.2-0.7,0.5-0.4c0.1,0.3,0.4,0.3,0.2,0.6c-0.1,0.4,0.4,0.7,0.8,0.7c-0.2,0.5,0.2,0.8,0.6,0.8
		c0.5,0,0.6-0.4,0.9-0.7c0.2-0.4-0.5-0.5-0.2-0.9c-0.2-0.4-0.2-0.2,0.2-0.3c0.3-0.1-0.2-0.7,0.2-0.7c0.2,0.4,1,0.4,0.8-0.1
		c-0.2-0.2,0.1-0.6-0.3-0.7c-0.2,0-0.7-0.1-0.4-0.3c0.1-0.2,0.1-0.8,0.5-0.7c0.4-0.1,0.3-0.6,0-0.8c0.3,0.1,0.4,0.3,0.3,0.6
		c0,0.3,0.4,0.9,0.7,0.5c0-0.2-0.1-0.4,0.1-0.6c0.2-0.2-0.4-0.7,0-0.5c0.5,0.2,0.5-0.4,0.5-0.7c0.4,0,0.5-0.5,0.2-0.7
		c0.2-0.5-0.8-0.2-0.6-0.6c0.4-0.4,1,0.3,1.2-0.4c0.1-0.2-0.2-0.8,0-0.6c0.2,0.1,0.7,0.6,0.8,0.2c-0.3-0.5-0.4-1.1-0.3-1.7
		c0.1,0.1,0.2,0.3,0.3,0.3c0.5,0.5,1.4-0.8,0.9,0.3c-0.6,1-0.4,2.2,0.7,2.7c1.1,0.8,2.4-0.4,2.4-1.5c0.4,0.7,0.8,1.5,1.5,2
		c-1.6,0.1-1.6,2.3-0.3,2.9c0.9-0.1,0.5,0.8,0.7,1.4c-0.6-0.8-1.2,0.4-1.5,0.5c-0.9-0.4-1.6,0.7-1.3,1.5c-0.3,0.2-1.5,0-1.5,0.9
		c-1.3,0.3-1.3,2.3-1,3.3c0.1,0.6,0.6,1.2,1,1.4c-0.4,0.8-1.7,0.7-1.5,1.8c-1,0.3-3,1.3-1.8,2.5c1.2,1.1,0.1,0.7-0.2,1.5
		c-0.2-0.2,0.6-1.6-0.4-1.8c-1.1-0.2-1.2,1.6-0.8,2.2c-0.8,0.2-1.5,0.3-1.3,1.4c0.3,0.9-0.6,0.2-0.9,0.6c0.4-1-1.3-1.8-1.5-0.6
		c-0.1,1.5-0.6,3.2-0.2,4.6c0.8,0.6,1.1-1.2,1.5-1c0.2,0.9-0.5,2.7,0.6,3c0.7,0,1.3-1.8,1.3-0.5c0,0.7,0.1,2.7-1,2.3
		c-0.1-0.8-1-0.6-1.1,0.1c-0.1,0.5,0.5,2-0.3,1.5c-0.3-0.3-1-0.4-1.2,0.1c-0.6-0.4,0.1-1-0.2-1.6c0.2-0.9-1-1.9-1.6-1
		c-0.6,0.7,0.4,1.7,0.4,2.3c-0.6,0.5,0.3,1.3,0.3,1.5c-0.5,0.3-0.9,0.9-0.7,1.5c-1.1-0.3-1.1,1.2-0.6,1.6c-0.8,1,1.4,1.3,0.7,2.4
		c0,0.6,0.8,0.9,1.2,0.6c0.3,0.8,1.3,0.8,1.6,1.6c0.7,0.7,1.7-0.2,1.4-1c0.3-1.1,2.1-0.9,1.9,0.4c0.2,0.9,1.5,0.9,1.4-0.1
		c0-0.3,1.2,0.8,0.1,0.8c-0.8,0.1-2,1.1-1,1.8c0.5,0.7,1.5,0.3,1.4-0.4c0.2,0.6,0.2,1.3,0.8,1.7c-0.4,0.6-0.6-0.8-1.3-0.3
		c-0.9,0.8-0.6,2.2-0.6,3.3c0.5,0.8,0.3,0.5-0.4,0.7c-0.9,0.1-2.1,1.8-0.7,2c0.6-0.3,0.9-0.5,1.6-0.5c0.6-0.6,0.4,0,0.9,0.3
		c1.5,0,1.1,2.6,2.8,2.2c0.2,0.8,1.3,0.2,1.2,1c0.3,0.8,1.4,0.2,1.6-0.3c-0.1,0.7,0.3,2.1,1.2,1.2c0.3-0.4,0.8-1.1,1.2-0.4
		c0.7,0.5,1.6-0.5,1.2-1.2c0.6,0.8,1.8,0,1.2-0.8c-0.5-0.8-0.3-1.5,0.7-1.3c1-0.1,0.3-1.1-0.4-1.1c-0.6-0.1,0.5-0.8,0.3-1.3
		c0.8-0.4,1.8-1.9,0.5-2.4c-0.8,0.3-0.6-0.4-1.3-0.6c-0.7,0-0.7,0.9-1.3,1c-0.3,0.6-0.6,1.2-0.6,1.9c-0.9,0.3-0.8,0.9-0.5-0.3
		c0.4-0.9,1.1-2.4-0.1-3.1c-0.8,0.3-1.1-1.3-0.4-0.6c0.7,0.2,1.3-1.5,1.4-0.2c0.1,0.8,1.1,0.7,1.5,0.2c0.2,1,1.7,1.5,2,0.5
		c0.2,0.8,1.6,1.3,1.7,0.2c0-0.9,0.3-1.8,0.3-2.7c-0.7-0.4-0.9-0.2-0.5-1.1c0.4-0.6-0.2-1.3-0.2-1.8c0.5-0.8,0.6-2.3-0.7-2.3
		c-0.6,0.2-1,0.3-1.5,0.1c-0.2-0.9,1-0.3,1.5-0.4c0.4-0.2,0.8-1.5,1.1-0.9c-1.1,0.6-0.2,2,0.3,2.6c0.9,0.7,1.1-0.6,1-1.3
		c0.8,0.6,1.3-0.8,0.5-1.1c-0.4-0.5,0.7-0.6,0.4-1.2c-0.2-1.3,0.2-0.2,0.8-0.7c0.1-1.2,0.5-0.2,1.1-0.3c0.6-0.1,0.9-1.8,1.2-0.7
		c0.7,0.8,2.3-0.2,2.6,1c0.8,0.9,1.9-0.2,2.2-1c0.4,1,1.7,0.3,2,1.3c0.6,0.6,1.6-0.1,1.5-0.9c0.4-0.3,1.4-1,0.5-1.4
		c0.7-0.6,1.4-1.6,2.4-1.5c1.1-1.1-0.7-2.8,0.7-3.7c0.1,0.3,0.9,1.7,1.6,1.1c0.5-0.4-0.4-1.2,0.4-1.1c0.7-0.4,0.2-1.6,1.1-1.8
		c0.2-0.6-0.7-0.7-0.1-1.3c0.3-0.9,0.3-2,1.4-2.3c0.4-0.3,0.8-1.2,1.1-0.4c1.2,0.8,1.8-1.1,0.9-1.7c-0.7-0.4-1.3-0.8-1-1.7
		c0.3-1.9,0.9,0.2,0.9,1c-0.1,0.9,1.2,1.4,1.5,0.4c0.2-1.3,0.9,0.1,1.6,0.1c0.5,0.9,1.5-0.1,1.2-0.8c0.8-0.6,0.9-1.6,1.4-2.3
		c0.5,0.5,0.7,2.2,1.6,1.6c0.3-0.3,0.1-1.8,0.6-1c1,0.6,1.5-1.1,1.3-1.9c0.6-0.7,1.4,0.8,2.2,0.4c0.9-0.4,1.4-1.7,1.1-2.6
		c0-0.9,1.8-2.3,0.6-3.1c-1,0.6-0.9-0.9-0.4-0.8c0.5,0.9,1.3,0,1.4-0.6c0.7-0.6,1.8-1,2.2-1.6c0.6,1.2,0.7,2.7,0.1,4
		c-0.7-1.2-1.9,0.4-1.7,1.3c-0.2,0.7,0.4,1.1,0.9,0.6c0.5-1,1-0.4,0.5,0.5c-0.4,1,0.4,2.2,0.4,3c-0.8,0-2.4-1.2-2.7,0.2
		c0.4,0.8-0.9-0.5-1,0.5c-0.2,0.6,0.8,1.3-0.1,1.5c-0.9,0.3-0.4,1.7,0.5,1.2c0.7,0.1,1.5,0.5,1.9-0.4c0.4-1.1,0.5-0.2,0.7,0.5
		c0.7,1.2-0.9-0.2-1.3,0.7c-0.7,0.8,0.6,1.5,0.5,2.2c-0.6,0-0.7,0.9-1,1.1c-1.3-0.2-1.1,2.5,0.1,1.5c0.3-0.5,0.4-0.9,1-1
		c0.8-0.5,1.6,1,1.6,1.7c0.2,1.2-0.3-0.3-0.9,0.1c-0.8,0.7-0.8,3.1,0.7,3c0.1,0.5,0.2,1.3,0.9,1.1c-0.3,0.8-0.2,2,0.9,1.8
		c0,1.5-0.3,3.4,0.6,4.7c-0.7,0.6-0.3,1.6-1,2.2c-0.5,0.7,0.1,1.7,0.1,2.2c-1,0.4,0.4,2.4-1,2.2c-0.7,1-0.3,2.3-0.6,3.4
		c0.8-0.4,1.2-1.8,2.1-1.9c0.6,1.1-1.2,0.7-0.8,1.7c0.4,0.6,1,1.2,0.7,2c-0.1,7.8-0.6,15.6-0.4,23.4c-0.1,3.4,0.3,6.9-1.3,10
		c-1.4,1.3,0.1,3.1-0.3,4.7c0,2,0.5,4-0.1,5.9c0.5,2.6,0.5,5.4,0.4,8c0.2,0.8-1.1,0.8-0.7,1.7c0.3,1.2,0.1,2.7,1.3,3.4
		c-0.4,0.6-1.7,0.6-1.6,1.6c-0.5,2.1-0.4,4.8,1.2,6.3c0.4,0.3,0,1.3,0.2,1.8c0.4,3-0.3,6-0.8,8.9c-0.3,4.2,0.1,8.5-0.1,12.7
		c0.5,1.3,0.6,2.8-0.3,3.8c-1.3,1.8-2.8,3.8-5.2,4.1c-1.6,0.5-2.8,2.2-4.6,2c-0.7-0.1-1.6,0-1.8-0.8c-0.7-0.9-1.9-0.4-2.5-1.3
		c-1-0.9-2.4-1.4-3.6-1.7c-0.5-0.7-1.4-0.3-2-0.9c-0.6-0.4-1.7-0.2-2.1-0.6c-0.4-1-1.7-0.1-2.4-0.8c-1.2-0.2-2.4-0.5-3.5-1
		c-0.8-0.1-1.6-0.8-1.2-1.5c-0.1-0.6-1-1.1-1.5-0.6c-0.2-0.5-0.7-1.4-1.3-0.9c-1-2.3-1.5-4.7-1.5-7.2c-0.2-0.3-0.6-2.6-0.3-1.6
		c0.8,2.2,3.8,3.2,5.8,2.4c0.3-1.3-1.6-0.8-2.3-1.3c-1.1-0.4-2.9-2-1.5-3.1c1.7-1.2,4.1-0.3,5.6-1.9c0.5,0.6,1.3,1.5,1.3,2.4
		c-0.5,0.9-1.7,1.9-1.6,3c0.9,0.3,1.6-1.1,2.3-1.5c1.1-0.9,2.1-1.9,2.9-3.1c-0.1-0.5,1.2-1.2,1.5-1.9c2.1-2.7,4-5.5,6.3-8
		c1.2-2.5,0.2-5.5-1.3-7.6c-1.9-2.1-5.3-3.3-5.6-6.5c-0.3-1.4-0.8-3.1-2.2-3.7c-0.2-0.9-1.1-0.8-1.3-1.6c-0.4-0.7-1.4-0.6-1.6-1.4
		c-1.3-1-3.1-1-4.5-1.6c-2.3-0.5-4.8,0.5-6.9,0.3c-0.7-0.8-1.5,0.1-2.2,0c-1.3,1.1-3.6,1.4-4.2,3.3c-0.4,0.7-1.2,1.5-0.4,0.3
		c0.6-0.5,0.1-1.8-0.6-1.1c-1,1-2.2,2.3-2.3,3.7c0.2,0.5-1.1,0.7-1.5,1.2c-1.9,1.2-3.4,3.6-2.3,5.9c0.6,1.6,2,2.8,3.2,4
		c-2.5,1.4-4.7,4.3-3.8,7.2c0.8,0.9,0.4,1-0.7,1.3c-3.4,1.3-6.4,3.7-8.1,6.8c-2.7,2.8-1.6,7-2,10.4c-0.6-0.1-0.9,0.7-0.8,1.1
		c0-0.6-0.9-1.3-1.2-0.4c0.3,4.4,0.3,8.9,1.7,13.1c0.1,0.4-0.3,1.2-0.1,1.7c0.1,0.9,0.5,1.8,0.8,2.6c-4.9,2-7.9,6.9-9.6,11.7
		c-0.2,0.9-1.3,2.7,0.1,3.1c1.1-0.5,1.1-2.2,1.7-3.2c1.5-3.6,3.5-7.8,7.4-9.3c1.4-0.5,2.3,0.9,2.6,2.1c0.9,0.8,0.2,2.3,0.4,3.5
		c-0.1,0.7,0.2,3.3-0.7,1.6c-0.4-0.8-1.2-1.4-2-1.7c-0.8-0.9-2.2-2.1-3.5-1.7c-1.3,0.6-1.4,2.5-0.1,3.2c2,1.1,4.8,2.2,4.7,4.9
		c0.1,1.1,0.9,2.4,0.4,3.4c-1,0.4-1.7,1.4-1.2,2.5c0,0.9,1,1.8,1.8,0.9c0.8-1.3,0.7-0.3,0.4,0.7c-0.5,1.5-1,3.1-0.5,4.7
		c-0.2,0.5-1.3-0.1-1.5,0.7c-0.6,2.8-1.5,5.7-0.8,8.5c0.2,0.6,0.7-1.4,0.9-2c0,0.8,0.1,1.6-0.3,2.3c0.1,1,1,1.9,0.2,2.9
		c-0.4,1.1-0.8,2.7,0.3,3.5c1.3,0.1,1-1.7,1-2.5c0.5,0.7,2,1.3,2.3,0.2c0.1-0.6-0.7-3-0.1-1.6c0.1,0.7,1.1,1,0.7,1.6
		c0.1,1.5,1.6,3.1,0.1,4.4c-0.7,0.5-0.6,1.7,0.4,1.6c2.4,0,4.9-0.2,7.1,1c2.1,0.6,1.2,3.3,1.3,4.9c-0.1,5.2-0.2,10.6,0.2,15.8
		c-0.5-0.1-0.6,0-1.4,1c-1.1,1.4-1.9,2.7-1.9,3.1c0,0.3-0.1,0.4-0.5,0.9c-0.3,0.3-0.9,1.1-1.4,1.8c-0.5,0.7-0.9,1.2-0.9,1.2
		c0,0-1.1-0.1-2.3-0.1c-1.3-0.1-2.3-0.1-2.3-0.1c-0.1,0.1-1.4,1.3-1.9,1.8c-1,1.1-1.6,2-2.2,3.3l-0.6,1.2l-0.7,0.2
		c-1,0.2-2,0.7-2.5,1.2c-0.4,0.4-0.5,0.4-0.9,1.3c-0.6,1.4-0.6,1.8-0.1,2.7c0.4,0.8,1.1,1.5,2.1,2.3l0.7,0.6l-0.3,0
		c-1.1,0-2.7-0.5-5-1.5l-1.5-0.6l-0.2,0.4c-0.3,0.5-0.7,1.4-0.8,1.9c-0.1,0.3,0,0.4,0.3,0.6c0.8,0.6,1.5,1,4,2.1l2.6,1.2l1.9-0.2
		l1.9-0.2l0.6,0.3c0.9,0.5,1,0.5,0.8,0.7c-0.1,0.1-0.1,0.1,0.1,0.2c0.2,0,0.2,0.1,0,0.5c-0.2,0.4-0.2,0.4-0.4,0.4
		c-0.1,0-0.2,0.1-0.4,0.4c-0.1,0.3-0.1,0.4,0,0.4c0.1,0,0.1,0.1,0,0.3c-0.1,0.2-0.1,0.4-0.1,0.5c0,0.1-0.1,0.1-0.2,0.1
		c-0.2,0-0.3,0-0.4,0.4c-0.2,0.4-0.2,0.4,0,0.4c0.1,0,0.2,0,0.2,0c0,0-0.1,0.2-0.2,0.5c-0.2,0.4-0.2,0.5-0.4,0.4
		c-0.2,0-0.2,0-0.4,0.4c-0.2,0.4-0.2,0.4,0,0.4c0.1,0,0.1,0.1,0,0.5c-0.2,0.4-0.2,0.4-0.4,0.4c-0.1,0-0.2,0-0.2,0.1
		c0,0.1-0.1,0.3-0.1,0.4c-0.1,0.2-0.1,0.2,0.1,0.2c0.1,0,0.1,0,0,0.3c-0.1,0.2-0.2,0.4-0.2,0.5c0,0.1,0,0.2-0.2,0.2
		c-0.2,0-0.3,0-0.4,0.4c-0.1,0.3-0.1,0.4,0,0.4c0.1,0,0.1,0.1-0.1,0.5c-0.2,0.4-0.2,0.5-0.4,0.4c-0.1,0-0.2,0-0.3,0.4
		c-0.1,0.3-0.1,0.4,0,0.4c0.1,0,0.1,0.1,0,0.5c-0.2,0.4-0.2,0.5-0.4,0.5c-0.2,0-0.2,0-0.4,0.4c-0.2,0.4-0.2,0.4,0,0.4
		c0.1,0,0.1,0,0,0.3c-0.1,0.2-0.2,0.4-0.2,0.5c0,0.1-0.1,0.1-0.2,0.1c-0.2,0-0.2,0-0.4,0.4c-0.1,0.3-0.1,0.4,0,0.4
		c0.1,0,0.1,0.1,0,0.3c-0.1,0.2-0.1,0.4-0.1,0.5c0,0.1-0.1,0.1-0.2,0.1c-0.2,0-0.3,0-0.4,0.4c-0.1,0.3-0.1,0.4,0,0.4
		c0.1,0,0.1,0.1,0,0.4c-0.1,0.2-0.2,0.4-0.2,0.5c0,0.1-0.1,0.1-0.2,0.1c-0.2,0-0.2,0.1-0.4,0.4c-0.2,0.3-0.2,0.4,0,0.4
		c0.1,0,0.1,0.1-0.1,0.5c-0.2,0.4-0.2,0.5-0.3,0.4c-0.1,0-0.2,0-0.2,0c0,0-0.1,0.2-0.2,0.4c-0.2,0.3-0.2,0.3,0,0.4
		c0.2,0,0.2,0.1,0,0.5c-0.2,0.4-0.3,0.5-0.4,0.4c-0.1,0-0.2,0.1-0.3,0.4c-0.1,0.3-0.1,0.4,0,0.4c0.1,0,0.1,0.1,0,0.5
		c-0.2,0.4-0.2,0.5-0.4,0.5c-0.2,0-0.2,0-0.4,0.4c-0.2,0.4-0.2,0.4,0,0.4c0.1,0,0.1,0,0,0.3c-0.1,0.2-0.2,0.4-0.2,0.5
		c0,0.1-0.1,0.1-0.2,0.1c-0.2,0-0.3,0.1-0.4,0.4c-0.1,0.3-0.1,0.4,0,0.4c0.1,0,0.1,0.1,0,0.5c-0.2,0.4-0.2,0.5-0.4,0.5
		c-0.2,0-0.2,0.1-0.4,0.4c-0.1,0.3-0.1,0.4,0,0.4c0.2,0,0.2,0.1,0,0.4c-0.1,0.2-0.2,0.4-0.2,0.5c0,0.1-0.1,0.1-0.3,0.1
		c-0.2,0-0.3,0-0.3,0.2c0,0.1-0.1,0.3-0.1,0.4c-0.1,0.1,0,0.2,0.1,0.2c0.1,0,0.1,0.1,0,0.5c-0.1,0.4-0.2,0.5-0.4,0.5
		c-0.2,0-0.2,0.1-0.3,0.5c-0.1,0.3,0,0.4,0.1,0.4c0.2-0.1,0.2,0.1,0.1,0.3c-0.1,0.1-0.1,0.3,0,0.4c0.1,0.1,0,0.3-0.1,0.4
		c-0.3,0.3-0.3,0.4,0,0.8c0.2,0.3,0.2,0.3,0.3,0.2c0.1-0.2,0.2-0.1,0.3,0.2c0.1,0.3,0.4,0.4,0.5,0.3c0,0,0.1,0.1,0.2,0.2
		c0.2,0.3,0.2,0.4,0.6,0.3c0.4,0,0.4,0,0.3-0.2c-0.1-0.1,0-0.1,0.4-0.2c0.3,0,0.5-0.1,0.5-0.2c0-0.1,0.1-0.2,0.1-0.2
		c0,0,0.1,0,0.2,0.1c0.2,0.1,0.2,0.1,0.5-0.3c0.2-0.3,0.2-0.3,0.1-0.3c-0.1,0-0.1,0,0-0.2c0.1-0.1,0.2-0.3,0.3-0.4
		c0.1-0.2,0.1-0.2,0.3-0.2c0.2,0,0.3,0,0.3-0.1c0-0.1,0.1-0.3,0.2-0.4c0.1-0.1,0.1-0.2,0-0.2c-0.1,0-0.1,0,0-0.3
		c0.1-0.2,0.2-0.4,0.3-0.4c0-0.1,0.2-0.2,0.3-0.2c0.2,0,0.3-0.1,0.4-0.3c0.2-0.3,0.2-0.3,0-0.3c-0.1,0-0.1,0,0-0.2
		c0.1-0.1,0.2-0.3,0.3-0.5c0.1-0.1,0.1-0.2,0.2-0.2c0.2,0.1,0.2,0,0.5-0.4c0.2-0.3,0.2-0.4,0.1-0.4c-0.1,0-0.1-0.1,0-0.4
		c0.2-0.4,0.2-0.4,0.4-0.4c0.2,0,0.3-0.1,0.4-0.4c0.1-0.3,0.1-0.4,0-0.4c-0.1,0-0.1-0.1,0.1-0.5c0.2-0.4,0.2-0.5,0.4-0.4
		c0.1,0,0.2,0,0.4-0.3c0.2-0.3,0.2-0.4,0.1-0.4c-0.1,0-0.1-0.1,0.1-0.5c0.2-0.3,0.3-0.5,0.3-0.4c0.2,0.1,0.4-0.1,0.5-0.5
		c0.1-0.3,0.1-0.3,0-0.2c-0.1,0-0.1,0,0-0.4c0.2-0.4,0.2-0.5,0.4-0.5c0.2,0,0.6-0.6,0.4-0.7c-0.1,0-0.1-0.1,0.1-0.5
		c0.2-0.4,0.3-0.4,0.4-0.4c0.2,0,0.2-0.1,0.3-0.3c0.1-0.3,0.1-0.4,0-0.4c-0.1,0-0.1-0.1,0.1-0.5c0.2-0.4,0.3-0.5,0.4-0.4
		c0.1,0,0.2,0,0.3-0.2c0.3-0.4,0.3-0.5,0.2-0.6c-0.1,0-0.1-0.1,0-0.5c0.2-0.4,0.2-0.4,0.4-0.4c0.2,0,0.2-0.1,0.4-0.4
		c0.2-0.4,0.2-0.4,0-0.4c-0.1,0-0.1,0,0.1-0.4c0.2-0.4,0.3-0.5,0.4-0.5c0.2,0,0.2-0.1,0.4-0.4c0.1-0.3,0.1-0.4,0-0.4
		c-0.1,0-0.1-0.1,0-0.5c0.2-0.4,0.2-0.4,0.4-0.4c0.3,0,0.7-0.7,0.4-0.7c-0.1,0-0.1-0.1,0.1-0.5c0.2-0.4,0.2-0.5,0.4-0.4
		c0.2,0,0.2,0,0.4-0.4c0.1-0.3,0.1-0.4,0-0.4c-0.1,0-0.1-0.1,0-0.4c0.1-0.2,0.2-0.4,0.2-0.5c0,0,0.1,0,0.2,0c0.2,0,0.2,0,0.4-0.3
		c0.1-0.3,0.1-0.4,0-0.4c-0.1,0-0.1-0.1,0.1-0.5c0.2-0.3,0.3-0.5,0.3-0.4c0.1,0.1,0.4-0.2,0.5-0.5c0.1-0.2,0.1-0.2-0.1-0.3
		c-0.1,0-0.1-0.1,0-0.5c0.2-0.4,0.2-0.4,0.4-0.4c0.2,0,0.2,0,0.4-0.4c0.1-0.3,0.1-0.4,0-0.4c-0.1,0-0.1,0,0-0.3
		c0.1-0.2,0.2-0.4,0.2-0.5c0-0.1,0-0.2,0.3-0.1c0.3,0,0.3,0,0.5-0.4c0.2-0.3,0.2-0.4,0-0.4c-0.1,0-0.2,0-0.2-0.1
		c0-0.2,0.1-0.1,0.9,0.1c1.2,0.4,1.8,0.4,2.2,0.2c0.1-0.1,0.4-0.4,0.6-0.7c0.5-0.8,0.6-0.9,0.7-0.8c0.1,0,0.3,0,0.6,0l0,0l0.5,0
		l0.4-0.9l0.4-0.9l-0.3-0.3l-0.3-0.3l1.7-3.9c0.9-2.1,2.2-5.1,2.8-6.7l0.1-0.1c1,1.7,2.4,3.1,4.4,3.2c0.8,0.5,0.1,2.1,0.1,3
		c-2.2,14.7-4.2,29.3-6.1,44.1c-1,7.1-2.3,14.1-3.1,21.2c1.1,0.4,2.9,0.1,2.9-1.4c0.6-6.7,1.9-13.4,2.8-20.1
		c2.2-15.8,4-31.8,6.7-47.5c1-2.1,2.7-3.7,3.5-5.9c3.3-7.1,4.6-14.9,5.9-22.5c-0.2-1,0.7-1,1.4-0.6c0.9,0.1,1.5,1,0.6,1.6
		c-2.6,4.1-1.7,9.3-1.9,14c0.1,4,0,7.9-0.9,11.8c-0.3,2.2-0.2,4.6-1.7,6.4c-0.7,1.1-0.4,2.5,0.6,3.2c0.8,1.7,0.3,3.6,0.6,5.4
		c0.1,1.1-0.1,2.5-1.2,3.1c-0.8-1.1-2.7-0.1-2.1,1.2c2.1,3.3,1.3,7.4,2.3,11c0.3,2.5,3.2,3.3,5.3,3.2c1.3-0.6,2.8,0,4.1-0.7
		c1.9-0.6,3.8-2.1,5.5-2.7c0.5,0.9,2.2,1.1,2.1-0.2c0.1-1.3-0.3-3.7,1.7-3.7c1.4,0.1,2.8,0.1,4-0.4c1-0.2,1.6-0.9,2.6-1.2
		c1.4-1,2.5-2.4,3.8-3.5c-0.1,3.8,0.1,7.7-0.8,11.4c0.2,0.7-1,0.3-1,1.1c-0.2,0.6,0.1,1.2,0.4,1.7c-1.1-0.3-0.7,1.3-0.3,1.8
		c0.4,0.5,0.7,2-0.3,1.6c-0.1-0.3-0.5-1.4-1.3-1c-1.1,0.8-1.4,2.7-1,3.9c0.8,0.3,1.5,0,0.8,1.2c-1,2.5-1,5.3-2,7.7
		c-0.8,0.9,0.2,2.1-0.1,3.2c-0.1,2.8-0.2,5.7,0.1,8.5c0,0.8-0.6,2.4,0.6,2.4c1.4-1,0.8-3.2,0.9-4.7c0.1-3.1-0.2-6.2,0.3-9.2
		c1.1,0.8,1.7-0.9,2-1.6c0.4,2.1,0.3,4.4,0.3,6.6c-0.2,3.9-0.3,7.9-0.7,11.8c-0.1,0.9-0.8,2-0.3,2.8c1.5,0.4,3.2,0,4.7,0.2h40.7
		c-0.7-7-0.7-14.2-0.7-21.2c0-0.8,1.4-2.1,0-2.3c-0.1-1.8,0.3-3.8,0.5-5.5c-1.2-0.8-0.8-2.4-0.3-3.5c-0.3-0.8-0.9-1.5-0.5-2.4
		c0.3-3.5-0.4-7.1,0.8-10.5c0.1-1.5-0.1-3,0.7-4.3c0.5-0.7,0.2-2.4-0.9-1.9c-0.7,1-0.5,0.4-0.6-0.6c-0.3-7.8-1.2-15.7-0.5-23.5
		c-1.2-3.6-0.7-7.5-0.9-11.2c-0.1-3.6,0-7.3-0.7-10.8c0.2-0.9,0.5-2.1,0.4-3.1c-0.1-1.8-0.5-3.6-0.3-5.5c-0.4-2.1-0.3-4.2-0.5-6.4
		c-0.6-1.4,0.1-3.1-0.1-4.7c-0.1-3.2-0.9-6.4-0.6-9.6c-0.3-1.2,0.4-2.5-0.1-3.7c-0.7-3.1-0.2-6.4-0.8-9.5c0.3-1.9,0.1-4-0.7-5.7
		c0.5-5.3,0.1-10.6-0.3-15.9c1.1-0.5,2.6-1,3.5,0.1c1.4,0.1,0.9-1.8,0.2-2.4c-0.2-0.5-1.2,0.1-0.7-0.5c0.2-0.9-1.2-0.9-1.7-0.5
		c-0.1-1.1-1.6-1.4-1.3-2.7c-0.3-4.6,0.1-9.2-0.1-13.8c-0.5-2.6,0.1-5.3-0.2-8c0.1-1.1-0.3-2.4,0.3-3.3c-0.3-0.5-0.4-1-0.6-1.6
		c-0.1-0.5,0-1.8,0-2.4c0.1-2,0-1.8,1.2-3.9c-0.1,0.1-0.1,0.1-0.2,0.2c0,0-0.1,0.2-0.1,0.1c-0.3-0.5,0-1.3,0.3-2
		c-0.3,0.3-0.6,0.6-0.9,0.8c0-0.7,0-1.5,0-2.2c2.5-5,6.9-8.7,10.4-12.9c21.4-23.7,43.8-46.5,65.4-70c0.2,0,0.4,0,0.5-0.2
		c0.5-0.1,0.8,0.8,1.4,0c0.7-1,1.1-0.3,0,0.2c-1.1,0.3-1.2,2.6,0,2.6c0.5-0.3,0.6-0.9,1.1-0.3c0.6,0.3,1-0.8,1.5-0.1
		c0.8,0.8-0.8,1.8-1.6,1.6c-1.3-0.2-3.7-0.3-3.7,1.5c0,0.5,1.4,0.4,0.5,0.5c-0.9-0.2-1,0.8-1.8,0.6c-1.1,0.1-2.4,1.4-1.6,2.4
		c0.6,0.4,1.6-0.4,1.7,0.6c1.2,0.5,1.8-1,2.2-1.8c0.3-0.3,1.4-1.5,1.2-0.6c-0.5,0.5-1.2,1.4-0.2,1.7c-0.4,0.7-1,1.4-1.7,1.5
		c-1.1,0.1-2.1,1.2-2.3,2.3c0.6,0.2,1.3-0.6,1.7-0.3c-0.1,0.5-1.1,0.7-1.1,1.3c-0.8-0.2-1.3,0.7-0.7,1.3c0.2,0.1,0.4,0.1,0.6,0.2
		c0.3,0.2,0.7,0.3,0.9,0.7c0.1,0.2-0.9-0.4-0.7-0.3c0.8,0.5,1.6,0.8,2.1,1.4c0.3-0.7,0.9-0.5,0.3,0.4c0,0,0,0,0,0
		c0.3,0.4,0.5,1,0.5,1.8c0.1-0.1,0.2-0.2,0.4-0.2c1-0.6,1.1,1.3,1.8,1.8c1.3,0.2-0.5,1.3,0.3,2c0.9,0.2,0.4,0.2,0.4,1
		c0.2,0.6,0.9,0.5,1,1.1c0.6,0.4,1.2,0.8,1.7,1.1c0.5-0.1,0.5-1,1.1-0.6c0.4,0.1,1.3-0.8,0.7-0.1c-0.4,0.5,0.4,1.5-0.5,1.2
		c-0.8,0.2-0.6,1.1-0.9,1.6c0,1,1.3,0.5,1.7,0.8c-0.4,0.8-0.7,1.7-1.7,1.8c-2.2,1.1-1.9,4-3.2,5.8c-0.3,0.5-0.6,1-0.8,1.5l-0.6-0.5
		c0.1,0.2,0.1,0.4,0.2,0.5c0.6,0.6-0.1,1.6,0.6,2.1c0.7,0.2,1.6,1.6,0.5,1.8c0.8,0.4,0.1,1.7-0.6,1.7c-0.1,0.5-0.1,1.5-0.8,1.5
		c-0.5-0.5-1.2-0.9-1.5-1.5c-0.4,0.6-1.3-0.3-1-1.1c-0.4-0.9,0.1-1.6,0.2-2.4c-0.5-0.9,0.2-1.7,1.1-1.9c0.2-0.2-0.3-1.2,0.2-1.6
		l-3.7-2.8c-0.1,0.2-0.1,0.4,0,0.6c-0.3-0.1-0.7-0.3-0.9,0.1c0.3,0.5,1.3,0.7,1,1.5c-0.1,0.4,0.2,0.7-0.1,1c-0.2,0.7,1,0.9,0.6,1.6
		c0,0.6-0.1,0.8-0.4,0.2c-0.2-0.4-0.9-0.4-0.7,0.2c-0.3-0.1-0.5,0.3-0.7,0.1c-0.2,0.3-0.3,0.3-0.4-0.1c0-0.3-0.2-0.6-0.3-0.8
		c0-0.6-0.4-1.1-0.8-1.4c-0.3,0.5,0.2,1.1,0.4,1.5c0,0.5-0.2,0.1-0.5,0c-0.3-0.3-0.8-0.5-1,0c-0.2-0.3-0.7-0.3-0.6,0.2
		c0,0.4,0,0.9-0.4,1c-0.1,0.4-0.4,0.5-0.7,0.6c-0.3,0.4,0.2,0.5,0.4,0.5c0.2,0.4,0.4,0.7,0.4,1.2c-0.1,0.3,0.3,0.8,0.4,0.4
		c0.3,0.5-0.4,0.4-0.6,0.2c-0.4-0.2-0.4,0.3-0.4,0.6c-0.6,0-0.7-0.8-1.1-1.1c0-0.4,0.2-0.8,0.2-1.1c0.2-0.3,0.3-0.8,0.4-1.1
		c-0.1-0.6-0.8-0.2-0.8,0.3c-0.2-0.2-0.4-0.9-0.7-0.6c-0.1,0.4,0.2,0.9,0.1,1.1c-0.4-0.1-0.5,0.7-0.2,0.8c-0.3,0.4-0.4,0-0.3-0.4
		c0.3-0.1,0.4-1.1,0-1c-0.2,0.2-0.6-0.4-0.7,0.1c-0.1,0.4,0.3,0.9-0.1,1c-0.1,0.2-0.3-0.3-0.6-0.1c-0.2,0.2-0.1,0.6,0.1,0.7
		c0,0.3-0.2,0.3-0.4,0.4c-0.3,0.6,0.7,0.7,0.7,1.2c0,0.5,0.5,0.8,0.7,1c-0.4,0-0.6,0.6-0.6,1c0.2,0.3,0.5,0.5,0.5,1
		c0,0.2,0.6,0.4,0.2,0.4c-0.3,0.1-0.3,0.6-0.2,0.8c-0.2,0.5,0.4,0.6,0.5,1c0.3,0.5,0.6,1.3,1.2,1.4c0.2-0.3,0.4-0.3,0.6-0.1
		c0.4,0.2,0.8-0.2,0.9-0.5c0.1,0.3,0.3,0.7,0.5,0.3c0.3-0.3,0.6-0.2,0.5,0.3c0.1,0.7,0.8,1.1,1.4,1.2c0.2-0.2,0.1-0.2,0.3,0
		c0.5,0,1-0.2,1.4,0.2c0.6,0.4,1-0.5,1-1.1c0.1-0.3,0.3-1,0.6-0.6c0.2,0.2,0.7,0,0.5,0.4c-0.1,0.3,0.3,0.4,0.1,0.7
		c-0.1-0.4-0.8-0.4-0.6,0.1c0.2,0.5,1,0.9,1.1,0.1c0-0.2,0.4,0,0.5-0.3c0.1-0.3,0.3-0.3,0.5-0.4c0,0.2,0.3,0.4,0.5,0.2
		c0.4-0.3,1.2-0.8,1.4,0.1c0.1,0.4-0.1,1-0.1,1.3c-0.4-0.2-0.6,0.7-0.2,0.7c0.2,0,0.4-0.2,0.4-0.4c0.4,0.3,0.3-0.5,0.7-0.5
		c0.3,0,0.9-0.2,0.6-0.6c0.3-0.4-0.5-0.6-0.1-0.9c0.3-0.3,0.4,0.2,0.7,0.2c-0.5,0.1,0,0.9,0.3,0.6c0.2-0.2,0.1-0.6-0.1-0.6
		c0.2-0.2,0.5-0.2,0.7,0c0.2,0.4,0.2,1.5,0.7,1.4c0.3,0.2,0.8,0.3,0.8,0.8c0.1,0.3,0.6,0.3,0.5,0.6c-0.4,0-0.1,0.6,0.1,0.6
		c-0.3-0.1-0.9-0.2-0.8,0.4c0.2,0.4,0.4,0.7-0.1,0.5c-0.4,0-0.9,0.3-0.9,0.7c0.2,0.5,0.8,0,1.1,0.3c0.6-0.1,1.1,0.1,1.5,0.6
		c0.3,0.3,0.9,0.6,0.5,1.1c0,0.6,0.8-0.2,0.7,0.4c0,0.4,0.1,0.5-0.3,0.3c-0.4,0-0.3,0.5-0.2,0.8c-0.3-0.3-1.1-0.4-1.1,0.3
		c-0.3-0.2-0.7-0.5-1.1-0.3c-0.1,0.5,0.5,0.8,0.5,1.3c0.2,0.4-0.7,0.2-0.4,0.7c0.5,0.2,0.6,0.8,0.5,1.4c-0.1,0.5-0.3-0.3-0.5-0.3
		c-0.3-0.2-0.9-0.6-1,0.1c0.2,0.4,0.1,0.6-0.3,0.4c-0.4-0.1-0.7,0.5-0.3,0.7c0.1,0.2-0.5-0.1-0.6,0.2c0.1,0.3,0.5,0.6,0.8,0.6
		c0.4-0.4,1,0.2,1.4,0.3c0.6,0.5,1.4,0.6,2,0c0.2-0.2,0.8-0.3,0.5-0.7c-0.3-0.4,0.6-0.6,0.6-0.2c0.7,0,1-1,1.5-1.4
		c0.2,0.2,0.6-0.1,0.3-0.4c-0.4-0.2-0.5-0.5-0.3-0.9c0.1-0.3,0.4-0.5,0.7-0.6c0,0.4,0.3,1.1,0.7,0.8c0.2-0.1,0.1-0.4,0.1-0.6
		c0.3-0.2-0.1-0.5-0.1-0.6c0.3-0.4-0.5-1.1,0.1-1.2c0.3-0.2,0-0.7,0.3-0.8c0.2-0.2,0.4-0.5,0.6-0.3c0.1-0.1,0.1-0.1,0.2-0.1
		c-0.1-0.8-0.1-1.7,0.8-2.1c0.4-0.2,0.5,0.3,0.7,0.3c1.5-0.1,2.7,2.5,1.4,3.2c-0.3,0.8-1.2,0.6-0.5,1.6c-0.7-0.3-1.5-0.7-1.9-1.4
		c0,0,0-0.1,0-0.1c0.1,0.8,0.1,1.5,0,2.3c-0.3,0-0.6,0.2-0.9,0c-0.2-0.3-0.7-0.3-0.7-0.1c-0.4-0.5-1,0.9-0.4,1c-0.4,0.4-0.1,1,0,1.5
		c0.2,0.2,0.3,0.6,0.5,0.8c1,0.2,1.5,1.3,2.2,1.9c0.4,0.3,0.7,1.2,1.3,1.1c0.3-0.3,0.8,0,1.1-0.4c0.3,0,0.4,0.1,0.3,0.4
		c-0.1,0.4,0.1,0.7,0.3,0.8c0.1,0.3,0.5,0.1,0.5,0.4c0,0.3-0.1,1,0.3,0.8c0.4-0.3,0.9,0,1.4-0.2c0.2,0.3,0.6,0.1,0.5-0.3
		c0-0.3-0.1-0.5,0.2-0.7c0.3-0.3,0.3-0.9,0.3-1.2c0.3-0.2,0.3-0.9,0.8-0.8c0.1,0.3,0.4,0.8,0.3,1c-0.3,0-0.8-0.2-0.7,0.3
		c0.2,0.3,0.8,0.4,1,0.1c0.2,0.3,0.7,0.4,0.7-0.1c0.5,0.4,0.6,1.1,0.6,1.7c-0.3-0.2-1,0-0.7,0.5c0.2,0.2,0.5,0.4,0.6,0.7
		c0.5,0.1,1.2-0.4,1.3,0.4c0.1,0.5,0.6,0.7,0.9,1.1c0.2,0.3,0.8,0.7,0.9,0c0.1-0.7-0.8-1.2-0.5-1.8c0.4-0.4,0.7-0.7,0.9-1.1
		c0.2-0.2,0.3-0.4,0.5-0.4c0.4-0.4-0.2-0.9-0.5-1.1c-0.5-0.1-0.4,0.7-0.4,1c-0.3,0-0.5,0.4-0.4,0.8c-0.3,0.2-0.5,0.2-0.6-0.2
		c-0.2-0.2-0.1-0.6-0.1-0.9c0.1-0.6,0.5-1.2,1.1-1c0.3-0.1,0.5,0.3,0.7-0.1c0.3-0.5,0.6-1.5,1.3-1.4c0.3,0.2,0.6,1.1,1,0.6
		c0.2-0.3,0.4-0.6,0.5-0.9c0.3,0.1,0.6-0.1,0.9-0.2c0.3,0.1,0.6,0,0.6-0.5c0.2-0.1,0.5,0.5,0.4,0.8c-0.1,0.3,0,0.6,0.3,0.8
		c0.2,0.3,0.8,0.3,0.7-0.2c0.2-0.3,0.5-0.1,0.7,0.1c0.2,0.1-0.3,0.5,0.1,0.6c0.5,0,1,0.3,1.5,0.5c0.3-0.1,0.6,0.7,0.9,0.2
		c0.3,0.2,0.4-0.3,0.7-0.3l0.2,0.1c0,0-0.1-0.1-0.1-0.1c0.2-0.2,0.6-0.4,0.7-0.7l0,0c0.1-0.1,0.1-0.3,0-0.5c0-0.2,0.1-0.4,0-0.5
		l-1-0.8c-0.2-0.3-0.6-0.5-0.9-0.7l-1.9-1.5c0.1-0.2,0.1-0.5-0.2-0.7c-0.4-0.9-1.3-1.6-1.6-2.5c0.3-0.6,0.9,0.5,1.4-0.1
		c0.4-0.2,0.3-1,0.2-1.2c0.8,0.8,1.5-0.3,1.3-1.1c-0.3-0.9,0.8-1.2,0.8-1.9c-0.8-1.1-2.5,0-2.6,1.2c-0.1,0.6-1.4,0.7-1.4,0.8
		c0.4-1,0-2.2,0.1-3.1c0.1-0.7,0.8-0.9,0.8-1.5c-0.1-0.8-1.3-0.5-1.4-1.3c0.7,0.4,2.3,0.5,2,1.7c-0.1,1,1.4,1.5,1.6,0.4
		c0.7,0,1.9,1,2.2-0.2c-0.1-0.6,0.5,0.7,0.9,0.5c0.7,0.2,1.2-1.5,1.7-0.5c-0.5,0.5-0.9,1.7,0.2,1.8c0.5,0-0.1,1.2,0.7,1.2
		c0.8-0.1,0.7-0.1,0.6,0.7c0.3,0.9,1.5-0.1,1.6,1c1,0.9,1.6-1.1,1.1-1.8c-0.2-0.9,0.9-0.9,1.4-0.5c0.5,0.9,1.1,2.5,2.5,1.8
		c0.8-0.1,1.2-1.3,0.7-1.6c1.1-1.2-0.1-2.8-1.4-3.2c0.6-0.9,0.5-3.2-1-3.1c-0.4-0.2-1.9,0.8-1.4,0.1c0.4-0.4,0.6-0.7,1.3-0.3
		c0.8,0.3,1.3-0.7,0.4-1c-1.2-0.3-1.9-1.4-2.9-2c-0.9,0.5,0.2,1.5-0.1,2c-0.9,0.3-1.3-0.5-0.8-1c-0.4-1.1-2.2-0.5-2.4,0.3
		c-0.3-0.2-0.1-0.9-0.7-1c-0.6-0.5,0.7-0.6,1-0.7c0.9-0.6-0.2-1.6-0.7-2.1c0.2-0.7,1.9-1.8,0.6-2.3c-0.6,0.3-1.2,0.7-1.4-0.2
		c0.1-0.9-0.4-2.4-1.5-1.9c-0.5,0.3-0.4,1-0.3,1.4c-0.3-0.2-1.6,0.2-1-0.4c0.2-0.4-0.5-1.1,0.3-0.8c0.6-0.2,1.3-1,1.2-1.7
		c0.7-0.6,0.3-1.5,0.1-2.1c0.6-0.3,2-0.7,1.2-1.6c-0.2-0.4,0.2-1.2-0.3-1.7c-0.5-0.6-0.7-1.2-1.1-1.9c1.1-1.7-0.7-4.1-2.5-4.3
		c-1-0.3-0.5-2.5,0.4-2.1c0,0.8,0.3,2.5,1.4,2c0.8-1,0.3-2.5-0.3-3.4c0.7-1.3,3.1-1.9,2.7-3.8c-0.1-0.8-1.3-1-0.8-1.7
		c0-0.5-0.6-1.1-1.2-0.9c0.4-0.8-0.5-1.5-1-1.8c0.1-0.5-0.6-0.9-1-0.7c0.1-0.7-0.8-0.7,0.2-1.4c0.8-0.8,0.7-2,1.5-2.8
		c1.1-1.7,2.3-3.9,4.4-4.3c1.2,0.2,0.6,2.3,1.6,2.3c0.6-0.5,0.7-0.4,0.8,0.4c0.6,0.8,1.5,1.5,1.2,2.7c-0.2,0.7,0.7,1.3-0.1,1.7
		c-0.5,0.8-1.5,1.9-0.9,2.8c0.6,0.6,1.9,0,1.8,1.1c0.4,0.9-0.6-0.6-1,0.1c-0.9,0.7-0.4,2.8,0.9,2.1c0.8-0.1,2-0.7,1.6-1.6
		c0.8-0.4,2.6,0,2.6-1.3c-0.1-0.7-1.5-0.3-1-1.2c0.3-0.5,1.1-1,1.4-1.3c0.1,1,1.3,0.6,1.7,0c0.2,0.7,0.4,1.8,1.4,1.8
		c0.5-1.2-0.5-3.6,1.4-3.8c0.8-0.2,1-1.3,2-1c1.6-0.4,0.3-3,2-3.2c1.1-0.7,1.4-0.7,1,0.7c-0.3,0.9,0.4,2.3,1.4,1.3
		c0.2,0.7,1.1,0.7,1.2,1.3c0.8,0,1,0.2,0.4,1c-0.6,0.3-0.8,1.1-1,1.5c-1,0.7-1.4,2.1-1.4,3.3c1.3,0,1.8-1.6,2-2.6
		c0.9-0.5,0.5,0.4,0.6,1.1c-0.1,1,0.2,2.2,1.3,2.3c-0.2,0.8,0.4,1.8,1.2,1.1c0.7-0.6,1.6-0.9,2.3-0.3c0.8-0.1,1.4,0.3,1.9,0.8
		c1,0.2,0.7-1,0.3-1.5c0.4-0.8,0.6-1.6,1.5-2.1c0.7-0.1,1-1.4,0.2-1.3c0.4-1.2,1.3,0.5,1.3,1.1c0.2,1.1,1.1,0.5,1.7,0.1
		c0.7,1.2-0.6,2.4-0.6,3.5c-0.7,0.4-1.6,0.5-2.3,0.7c-0.8-0.2-1.7,0.3-2.5,0.4c-0.9,0.9,0.8,1.9,1.6,1.4c0,0.7-1,1.9-0.2,2.3
		c0.7-0.2,1.2-1.5,1.8-1.3c0.4,1,1.8,0.3,1.7-0.5c1,0.2,0.6,1-0.3,1.1c-0.7-0.5-2.5,0.3-1.7,1.1c0.6,0.2,0.2,1.7,1.2,1.3
		c0.8-0.3,1.2-1.7,2-0.9c0.5-0.1-0.2,1.1,0.5,1.3c0.6,0.3,1.3-0.4,1.2-1c0.6-0.3,0.8,0.1,1.2,0.4c1.4,0,0.3-2.1,1.2-2.8
		c0.8-0.6,0.6-2,0.7-2.6c0.5,0.8,1.9,0.7,2.5,0.2c0.2-0.8,0.2-1.7,1.1-2c0.3-0.3-0.2-1.7,0.5-0.9c0.6,0.4,1.4,0,1.7-0.5
		c1.2-0.2,0.5-1.6,1.1-2.3c0.4-1.3,1.5-2.8,0.8-4.1c-0.7-0.2-1.1-0.5-1-1.2c-0.1-1.1-1.5-1.5-2.1-1.4c0.4-0.4,0.8-1.4-0.1-1.4
		c-0.9-0.3-1.2-1.1-0.2-1.4c1.1-1.1,0.9-3.1,0.3-4.4c-0.7-0.1-0.4,0-0.3-0.6c-0.5-1-1.6-1.9-1.5-3.2c-0.1-1.7-2.3-1.7-3.4-0.9
		c-0.6,0.1-2.3,0.5-1.8-0.7c0-0.5-0.8-1.4,0.2-1.4c0.8-0.1,0.3-1.1,1-1c-0.5,0.7,0.4,2.3,1.1,1.2c0.6-1,0.2-3.1-1.3-2.6
		c-0.5,0.2-0.6-0.8-1.2-0.8c-0.7,0-1-0.3-1.4-0.7c0.4-0.3,0.3-1.1-0.3-1.4c-1-0.6-3-1.6-1.8-3.1c0.5-0.7,1.8-1,2.3-1.3
		c0.2,1.1,2.1,0.6,1.4-0.4c-0.3-0.4-0.9-0.7-1.3-0.3c-0.1-1.2-1.4-0.1-1.9-0.9c-0.4-0.5-1.6-1.7-2-0.7c-1.1-0.3-0.4,1.8-1.5,1.2
		c-0.9-0.2-0.2-1.1-0.6-1.7c0.9,1,1.7-0.9,0.6-1.3c-0.6-0.3-1.3,0.4-0.9,0.9c-0.6-0.1-1-0.9-1-1.4c0.5-1,2.5-2,1.4-3.1
		c-0.2-0.9-0.6-2,0.3-2.7c0.5-0.5-0.4-1.6,0.4-1.8c0.6,0.8,1.1-0.5,0.9-0.9c0.2,0.7,0.8,2.1,1.7,1.2c0.4-1,0.8-1.6,1.1-0.3
		c0.5,0.8,1.7,1.7,2.5,1.3c0.5-1-1.1-1.6-1-2.5c-1-1.1-1.3-2.4-0.9-3.8c0.2-0.9-0.1-2.5,1.2-2.3c1.1-0.7-1.5-1.5-0.2-2
		c0.6-0.5,0.8-0.7,0.9,0.2c0.5,0.7,1.4,0.2,1.7-0.4c-0.2,1,0.7,2.7,1.9,2c0,0.9,0.1,2.1,0.8,2.6c1-0.3,0.8-1.9,1.5-2.6
		c0.4-0.8,1.2,1.3,1.7,0.2c-0.2-1.2,0.6-2.2,1.7-2.6c0.9-0.4-0.1,1,0.1,1.5c0,0.8,0.2,2.6,1.4,2c0.4-0.9,1-1,1.1,0.1
		c0.3,1,1.8,0.9,1.7-0.2c0.2-0.3,0.5,1.3,1.2,1c0.5-0.5,0.4-1.7,0-2.3c-1.3-0.4-1-2.2-1.2-3.3c0-1.8-0.9-3.7-2.7-4.1
		c-0.7-0.2-1.6-1.4-1.9-0.2c-0.3,1-1.7-0.6-1.1-1.1c-1-1.4-3.1-1.1-4.5-1.6c-0.1-0.7-1.1-1.2-1.2-0.2c0.2,0.9-0.3,1.5-1.1,1.7
		c-0.7,0.2-1.5-0.4-2-0.7c0.7-0.5,1.6-1.8,0.4-2.4c-0.5-0.4-0.9,0.2-1.1,0.4c-0.8-0.4-0.7,0.9-0.9,0.9c-1.2-0.3-1.2,2.3-2.3,1.1
		c-0.7-0.5-1.2,0.8-1.8,0.2c-0.7-0.1-1.4-0.2-1.4-1c-0.7-0.4-0.6-0.7,0-1.3c1.6-1.9,3.7-3.2,5.8-4.4c0.4,0.5,1.2,1.1,1.3,1.9
		c-0.2,0.7,0.3,1.8,0.8,1.6c-0.3,1.5,3,1.1,2.2-0.3c1.3,0.4,1.9-1,2.6-1.7c0.1-0.7,0.6-1.4,0.6-2c-1-2.3,0.3-4.5,0.4-6.9
		c-0.1-1.3,1.2-2.9,0.3-3.9c-1-0.2-1.1-1.7-2.2-1.9c-0.5-0.6-0.4-1.1,0.4-1.1c0.8-0.2,1-1.1,0.9-1.6c0.3-0.5-0.5-1.1,0.1-1.4
		c0.5-0.3,1.9-0.8,1-1.6c-1.1-0.6-1.3-2-2.2-2.8c0.3-0.8-0.6-1.3-1.2-0.7c-0.5,0.4-0.8,0.9-1.4,0.4c-1-0.3-1.9,0.4-2.6,0.7
		c-0.8-0.3-1.9,0.3-2.4-0.7c0.3-0.5,0.9-1.8,1.3-1.8c0.3,0.6,0.7,2,1.5,1.2c0.2-0.8-0.3-2.1-1.2-2.3c0.2-0.7-0.3-1.9-1.1-1.4
		c0-1.4,1.1-2.5,2.2-3.1c0,0.9,1.2,2.1,1.9,1c0.1-0.7,0-1.6,0.4-2.1c-0.5-1-2.3-2.2-1-3.3c0.7-0.8,0.4-2.2,0.7-3.2
		c0.2-0.8,0.1-2.4-1.1-1.9c-1.4,0.6-0.9,3.1-2.6,3.1c-1.1-0.4-2.3-0.8-3.2-0.7c-0.7-0.3-1-0.1-1.4-0.7c-1.2-0.3-1.3,1.4-1.3,2.3
		c0.4,1.2,1.8,0,2.4-0.2c0.4,0.6,1.4,0.5,1.9,0c0.8,0.4,1.1,0.8,0.5,1.4c-0.1,0.8-0.9,0.9-1.4,1.3c-1.2,0.5-2.8,0.2-3.2-1.1
		c-0.6-0.4-0.2-1.5-1.2-1.5c-1.4-0.2-3.5,0.4-4.1-1.2c-0.2-0.9,1.1-2.5-0.4-2.7c-0.7,0-1.6-0.1-2.4-0.1c-0.2-0.7-0.9-1.2-1.5-1.6
		c-0.1-0.7-0.9-1.4-1.6-0.7c-0.4-0.3,0.3-1.5,0.8-1.8c0.6-0.2,1-0.7,1-1.4c0.3-0.8-0.6-2-1.3-1.1c-0.9-0.1-0.7-0.9-0.6-1.6
		c-0.2-0.5,1.2,0,0.9-0.9c-0.7-1.1-0.9-2.4-1.2-3.7c-0.7-0.6,0.3-2.1-0.8-2.2c-0.1-0.9-1.2-0.5-1.5-1.2c-0.9-0.5-2.4-1.3-3.2-0.3
		c-0.7,0.2-1.5,0.8-1.7,1.7c-0.9-0.9-2.5,0-2.2,1.3c0.3,0.7-1.3,1.7-0.2,2c0.5,0.1,1.3-1.2,1,0c0.3,0.8-1.4,0.4-1.1,1.4
		c-0.6,0-1.7-0.4-1.7,0.7c-0.3-0.6-1-1-1.2-1.6c0.7-0.1,0.9-1.6,0-1.6c-0.4-0.9-0.2-2.4-1.2-3.2c-0.8-1-1.7,0.3-2.5,0.6
		c-0.4-0.3-1-1.8-1.8-1c-0.2,1.1-1.3,1.6-1.8,2.5c-0.1,0.8-0.5,0.2-0.8-0.1c-1.2-0.8-2.1,0.9-2.1,1.9c-0.3,1-0.4-0.9-0.9-1
		c-0.8-0.4-1.2,0.7-2.1,0.4c-0.8,0.6-1-0.9-1.8-0.8c-1.5,0.4-0.7,2.5-1.6,3.5c-0.9-1.4-0.4-3.1-0.8-4.6c-0.1-0.9-1-2.2-1.9-1.2
		c-0.5,0.8-0.3-0.8-0.9-0.9c-2,0.1-0.8-2.4-2.2-3.1c-0.7-0.5-1.1,0.9-1.5,0.1c-0.4-0.9-1.5-0.7-1.8,0.2c-1.3-0.8-2-2.2-2.1-3.7
		c-0.7-0.6-1,1-1.3,1.5c-0.3,0.6-0.5-1-0.9-1.2c-1.2-0.9-1.6,1.2-2.8,1c-0.9-0.5,1.4-1.2,0.3-1.9c0.2-0.7-0.5-1.6-1.2-1
		c-0.4-0.5-1.1-1.6-1.8-0.6c-0.4,0.9,0-0.6-0.6-0.8c-0.6,0-0.6-0.5-1-0.9c-1.1-0.5-1.1,1.2-0.7,1.8c0.1,0.1,0.1,0.1,0.2,0.2
		c0.4,0.4,0.5,0.8,0.1,1.4c0.3-0.7-0.3-1.7-1.1-1.4c-0.6,0.7-1.3-0.3-1.8-0.5c-0.7-0.1,0-0.9,0.4-1.2c0.3-0.3,0.2-0.6,0-0.8
		c0.3-0.4,0.4-0.9,0-1.3c1.8-0.1,4.4-0.3,4.8-2.4c-0.2-0.7,0.3-1.2,0.6-0.9c-0.7,1,1.1,2,1.5,0.8c0.3-0.6-0.2-1.9-1-1.5
		c0.5-1.4-1.5-1-1.7-0.3c-0.4-0.4-1.4,0.4-0.8-0.5c0.6-0.4,1.4-0.5,1.4-1.5c0.4-1.5-1.7-1.5-2.6-1.1c-0.9,0.6-1.6-1.8-2.5-0.7
		c-0.3,0.5-0.9,2-0.9,0.7c-0.2-1-1.4-0.8-1.6,0.1c-0.3,1.3-0.7-0.6-1.4-0.8c-0.9-0.7-1.5,0.5-1.9,1c-1-0.1-0.1-0.5-0.2-1.2
		c0.3-1.1-1.1-1.7-0.9-2.8c-0.1-1.1-1.4-1-1.8-0.1c-0.5,1.1-1.8-0.5-2.6,0.4c-0.3,0.6-0.9,0.7-0.9,0c1.5-0.3,2.3-2.3,0.9-3.2
		c-0.6-0.6-2.6-0.7-1.5-1.9c0.3-0.4,1.2-1.5,1.4-0.6c0.5,0.5,1.5-0.4,0.9,0.8c-0.3,0.7,0.3,1.6,1.1,1.2c0,0.8,0.9,2.3,1.6,1.5
		c0.5,0.7,2.1,2,2.5,0.7c0.3-0.8-1.5-0.9-0.4-1c1.1-1.6,0.9-7.8-0.9-8.2c-1.2,0.6-0.3,2.1,0.4,2.8c0.2,0.9-0.6,0.6-0.9,1.2
		c-0.4,0.7-1.3,1-1.6,0.1c0.1-0.6-0.3-1.2,0.5-1.3c0.7-0.6,0.3-1.9-0.5-2.3c1-0.6,0.8-1.8-0.1-2.3c-0.8-0.7-1.7,0-2.6,0
		c-0.9,0.4,0.2,1.5-0.7,2c-0.1,0.9,0.1,0.7-0.7,0.3c-0.7-0.2-0.6,1.6-1.2,1c0.2-0.9-1.3-2.1-1.7-0.9c0,0.6-1,1-0.4,1.7
		c0.4,0.3,1.1,1.1,0.4,1.2c-0.6,0.3-1.2,1.2-1.8,0.5c-0.8-0.3-1.4,0.7-1.1,1.4c-0.4-0.7-0.3-1.1,0.3-1.5c0.4-0.6,0.4-2.3-0.7-1.8
		c-0.4,0.4-0.4,0.9-1,0.9c-0.6,0.2-0.2,1.8-0.6,0.8c-0.7-1-1.4,0.1-1.8,0.6c-0.7-0.6-1.5,0.3-1.2,1c-1,0.7,1.3,1.4,0.3,1.9
		c-1.2,0.3-1.6-1.9-2.8-1c-0.4,0.2-0.6,1.8-0.9,1.2c-0.3-0.4-0.5-2.1-1.3-1.5c-0.1,1.5-0.8,2.9-2.1,3.7c-0.3-0.9-1.4-1.1-1.8-0.2
		c-0.1,0.1-0.1,0.2-0.2,0.2c-0.2-0.3-0.5-0.4-0.9-0.5c-0.2-0.6-0.9-2-1.6-1.1c-0.4,1.1,0.3-0.9,0.3-1.3c0.5-0.7,2.1-1.8,1.1-2.7
		c1.8-0.1,4.4-0.3,4.8-2.4c-0.2-0.7,0.3-1.2,0.6-0.9c-0.7,1,1.1,2,1.5,0.8c0.3-0.6-0.2-1.9-1-1.5c0.5-1.4-1.5-1-1.7-0.3
		c-0.4-0.4-1.4,0.4-0.8-0.5c0.6-0.4,1.4-0.5,1.4-1.5c0.4-1.5-1.7-1.5-2.6-1.1c-0.9,0.6-1.6-1.8-2.5-0.7c-0.3,0.5-0.9,2-0.9,0.7
		c-0.2-1-1.4-0.8-1.6,0.1c-0.3,1.3-0.7-0.6-1.4-0.8c-0.9-0.7-1.5,0.5-1.9,1c-1-0.1-0.1-0.5-0.2-1.2c0.3-1.1-1.1-1.7-0.9-2.8
		c-0.1-1.1-1.4-1-1.8-0.1c-0.5,1.1-1.8-0.5-2.6,0.4c-0.3,0.6-0.9,0.7-0.9,0c1.5-0.3,2.3-2.3,0.9-3.2c-0.6-0.6-2.6-0.7-1.5-1.9
		c0.3-0.4,1.2-1.5,1.4-0.6c0.5,0.5,1.5-0.4,0.9,0.8c-0.3,0.7,0.3,1.6,1.1,1.2c0,0.8,0.9,2.3,1.6,1.5c0.5,0.7,2.1,2,2.5,0.7
		c0.3-0.8-1.5-0.9-0.4-1c1.1-1.6,0.9-7.8-0.9-8.2c-1.2,0.6-0.3,2.1,0.4,2.8c0.2,0.9-0.6,0.6-0.9,1.2c-0.4,0.7-1.3,1-1.6,0.1
		c0.1-0.6-0.3-1.2,0.5-1.3c0.7-0.6,0.3-1.9-0.5-2.3c1-0.6,0.8-1.8-0.1-2.3C266.3,25.7,265.9,25.6,265.6,25.6L265.6,25.6z M318,245.5
		c0-0.4-0.1-0.8-0.2-1.2c0-0.3-0.1-0.4-0.2-0.4C317.7,244.5,317.9,245.1,318,245.5L318,245.5z M304.9,223.9l1.2,0.9
		c-0.2-0.5-0.2-1.1-0.9-1C305.1,223.8,305,223.9,304.9,223.9L304.9,223.9z M229.4,50.7c0.1,0,0.1,0.1,0.2,0.2c0.8,0.4-0.2,1.3,0,2
		c-0.3,0.8,0.8,2,1.4,1c0.2-1,0.1-0.4,0.3,0.2c0.6,0.8,0.7,2,1.7,2.5c-0.4,0.2-0.7,0.6-0.7,1c-0.4,0.1-0.7,0.3-0.8,0.8
		c-0.2,0.7-1.4,0.6-1.3,1.5c0,0.4-0.5,0.7-0.8,0.6c0.5-0.4,0.5-1.5-0.3-1.5c-0.4-0.9-0.2-2.4-1.2-3.2c-0.8-1-1.7,0.3-2.5,0.6
		c-0.2-0.1-0.3-0.4-0.5-0.7c0.1-0.9,0.1-1.9,0.6-2.1c0.7,0.3,1.2-0.4,1.2-1c0.4-0.3,0,1,0.5,1.3c0.5,0.9,1.8,0.4,1.5-0.6
		c0.4-0.6,0-1.4-0.1-1.9C229,51.8,229.1,50.7,229.4,50.7L229.4,50.7z M171.3,64.2c0.6,0.1,1.2,0.1,1.7,0.2c-1,0.9,0.7,2,1.1,2.7
		c0.1,0.4,0.7,2.4,0.3,1.3c-0.7-0.9-1.4,0.4-1.6,1.1c-1.1,0.1-1.5,1.4-1.6,2.3c-0.2,0.4-0.1,0.7,0.1,0.9c-0.4-0.3-0.9-0.1-1.3,0.1
		c-0.3-0.6-0.9-1.1-0.8-1.9c-0.1-1.1-1.4-1-1.8-0.1c-0.5,1.1-1.8-0.5-2.6,0.4c-0.3,0.6-0.9,0.7-0.9,0c1.5-0.3,2.3-2.3,0.9-3.2
		c-0.6-0.6-2.6-0.7-1.5-1.9c0.3-0.4,1.2-1.5,1.4-0.6c0.5,0.5,1.5-0.4,0.9,0.8c-0.3,0.7,0.3,1.6,1.1,1.2c0,0.8,0.9,2.3,1.6,1.5
		c0.5,0.7,2.1,2,2.5,0.7c0.3-0.8-1.5-0.9-0.4-1C171.2,67.8,171.4,65.9,171.3,64.2L171.3,64.2z M219,65.8c0.3,0,0.4,1.1,1,0.8
		c-0.1,0.5-0.5,1.2-0.1,1.9c-0.3,1,1,1.5,1.5,0.6c0.5-0.3,0-1.6,0.5-1.3c0,0.6,0.4,1.3,1.2,1c0.7,0.3,0.5,2,0.7,2.9
		c-0.1,0.9,0.9,1.1,1.3,0.5c0,0.5,0.1,1.2-0.2,1.6c-0.1,0.4-0.1,0.9-0.2,1.3c-0.3-0.7-1.4-0.6-2-0.3c-0.7,0.6-1.2-2-1.9-0.8
		c0,0.1-0.1,0.3-0.2,0.5c-0.2-0.1-0.4-0.1-0.6-0.1c-0.3-0.6-1-0.3-1.1,0.5c-0.1,0.9-0.3,0.3-0.6-0.2c0,0,0,0,0-0.1
		c-0.1-0.3-0.3-0.5-0.4-0.6c-0.2-0.2-0.4-0.3-0.6-0.2c-0.1-0.1-0.2-0.2-0.2-0.3c-0.1-0.6-0.5-0.7-0.9-0.8c-0.1-0.3-0.3-0.7-0.5-1
		c0.9-0.6,1-1.7,1.5-2.5c0.2-0.6,0.2-1.2,0.3-0.2c0.5,1,1.7-0.2,1.4-1c0.2-0.7-0.9-1.6,0-2C218.9,65.9,218.9,65.8,219,65.8L219,65.8
		z M176.7,71.1c0.1,0,0.2,0,0.3,0.1c0,0.6,0.1,1.3,0.6,1.7c-0.9,0.1-2.1,0.7-2.4,1.7c0,0,0,0,0-0.1c-0.2-0.9-1.2-0.8-1.5-0.2
		c-0.2,0-0.5,0.1-0.7,0.3c0,0-0.1-0.1-0.1-0.1c-0.2-0.8-0.8-1.4-1.3-1.6c-0.1-0.1-0.1-0.2-0.2-0.2c0.5,0.4,1.4,0.5,1.9,0.8
		c0.8-0.1-0.1-1.2,0.9-1.1c0.2,0.1,1.3,0.6,1.7-0.1C176.6,72.1,176.4,71.2,176.7,71.1L176.7,71.1z M223.2,82.3
		c0.1,0.5,0.3,0.8,0.7,0.9c0.4,0.3,0.9,1.5,0.6,1.9c-0.5-0.7-1.2,0-1.2,0.8c-0.7,0.6-1.4,1.4-1.2,2.7c0,0.2-0.1,0.5-0.1,0.7
		c-0.2-0.6-0.5-1-1-1c-0.2-0.7-0.7-2.1-1.2-1.1c-0.3,1.2,0.2-1,0.3-1.4c0.4-0.8,1.7-2,0.9-2.9C221.6,82.7,222.5,82.6,223.2,82.3
		L223.2,82.3z M241.8,82.7c0.3,0,0.6,0.1,1,0.1c-0.1,0.3-0.2,0.7-0.1,1c-0.2,0.8,0.6,2.1,1.1,1.1c0.1-1,0.1-0.4,0.3,0.2
		c0.5,0.9,0.5,2.2,1.3,2.7c0.1,1.3-1.1,0.7-1.2,1.9c-0.2,0.7-1.1,0.6-1,1.6c0,0.7-1,1-0.8,0c-0.2-1.3-1.5-0.7-1.6,0.4
		c-0.4-0.4-0.9-0.2-1.2-0.6c-0.6,0-0.7,1.3-1.3,1.1c-0.7,0.5-0.7,1.9-0.7,2.8c0.2,0.1,0.4,0.3,0.3,0.4c-0.7,0-1.4,0-2.1,0.1
		c0-0.1,0-0.2,0-0.4c0.1-0.7,0.2-1.8-0.4-2.1c0.5-1,0.2,0.9,0.9,0.7c0.5-0.3,0.5-1.3,0.2-1.7c0.7-0.3,0.3-1.4,0.8-2.1
		c0.5-1-0.7-1.5-0.7-2.4c0.5-0.3,0.1-2.3,0.8-1.2c-0.1,0.6,0,1.3,0.5,1.5c0.1,1.1,1.3,0.9,1.1-0.2c0.2-0.9,0.1-2.8,0.6-3.1
		c0.6,0.3,0.9-0.5,0.9-1.1c0.3-0.3,0,1.1,0.4,1.4c0.4,1,1.4,0.4,1.1-0.7C242,83.7,241.9,83.2,241.8,82.7L241.8,82.7z M130.4,83.4
		c0.1,0,0.1,0.1,0.2,0.2c0.8,0.4-0.2,1.3,0,2c-0.3,0.8,0.8,2,1.4,1c0.2-1,0.1-0.4,0.3,0.2c0.6,0.8,0.7,2,1.7,2.6
		c0.1,1.2-1.4,0.7-1.6,1.7c-0.2,0.7-1.4,0.6-1.3,1.5c0,0.7-1.3,0.9-1,0c-0.3-1.2-1.9-0.6-2,0.4c-0.5-0.4-1.1-0.2-1.6-0.6
		c-0.8,0-0.8,1.2-1.7,1c-0.6,0.3-0.8,1.1-0.9,1.8c-1,0-1.8,0.3-2.2,1.3c0,0,0,0-0.1,0c0-0.2,0-0.3-0.1-0.5c0.1-0.7,0.3-1.7-0.6-1.9
		c0.7-0.9,0.3,0.9,1.1,0.7c0.6-0.2,0.6-1.2,0.2-1.6c0.9-0.3,0.3-1.3,1-1.9c0.6-1-0.8-1.4-0.9-2.2c0.6-0.3,0.1-2.1,1-1.1
		c-0.2,0.6,0,1.2,0.6,1.4c0.1,1,1.6,0.9,1.5-0.2c0.2-0.9,0.1-2.6,0.7-2.9c0.7,0.3,1.2-0.4,1.2-1c0.4-0.3,0,1,0.5,1.3
		c0.5,0.9,1.8,0.4,1.5-0.6c0.4-0.6,0-1.4-0.1-1.9C130,84.5,130.2,83.3,130.4,83.4L130.4,83.4z M185.1,84.4c0,0,0.1,0.1,0.2,0.3
		c0.6,0.4-0.2,1.4,0,2.1c-0.2,0.8,0.6,2.1,1.1,1.1c0.1-1,0.1-0.4,0.3,0.2c0.5,0.9,0.5,2.2,1.3,2.7c0.1,1.3-1.1,0.7-1.2,1.9
		c-0.2,0.7-1.1,0.6-1,1.6c0,0.7-1,1-0.8,0c-0.2-1.3-1.5-0.7-1.6,0.4c-0.4-0.4-0.9-0.2-1.2-0.6c-0.6,0-0.7,1.3-1.3,1.1
		c-0.7,0.5-0.7,1.9-0.7,2.8c0.4,0.1,0.6,0.6,0,0.5c-0.8-0.1-0.7,1.2-0.1,1.5c0.2,0.5-0.4-0.1-0.7,0c-0.5,0-0.4,0.6-0.4,0.8
		c-0.4,0.2-0.2-0.1-0.4-0.4c-0.1-0.3-0.4-0.4-0.7-0.5c0.4-0.3,0.6-1,0.6-1.7c0.2-0.3,0.6-0.5,1-0.6c0.5-0.6,0.3-1.4-0.2-1.9
		c0-0.3-0.1-0.7-0.2-0.9c0.7-0.3,0.3-1.4,0.8-2.1c0.5-1-0.7-1.5-0.7-2.4c0.5-0.3,0.1-2.3,0.8-1.2c-0.1,0.6,0,1.3,0.5,1.5
		c0.1,1.1,1.3,0.9,1.1-0.2c0.2-0.9,0.1-2.8,0.6-3.1c0.6,0.3,0.9-0.5,0.9-1.1c0.3-0.3,0,1.1,0.4,1.4c0.4,1,1.4,0.4,1.1-0.7
		c0.3-0.7,0-1.5-0.1-2C184.8,85.6,184.9,84.3,185.1,84.4L185.1,84.4z M282.9,85.9c0.1,0,0.2,0.1,0.2,0.4c0.4,0.5,1.2-0.4,0.7,0.8
		c-0.2,0.7,0.2,1.8,0.9,1.3c0,0.8,0.7,2.5,1.3,1.6c0.4,0.7,1.6,2.2,1.9,0.7c0.2-0.8-1.2-0.9-0.3-1.1c0.3-0.6,0.5-1.9,0.5-3.3
		c0.4,0.5,0.9,0.9,1.5,1.1c0.1,0,0.2,0.1,0.4,0.1c0.8,0.2,1.8,0.3,2.5,0.3c-1,0.9,0.7,2,1.1,2.7c0.1,0.4,0.7,2.4,0.3,1.3
		c-0.7-0.9-1.4,0.4-1.6,1.1c-1,0.1-1.5,1.3-1.6,2.2c-0.7,0-1.4,0-2,0c-0.3-0.3-0.6-0.2-0.8,0c-0.3,0-0.5,0-0.8,0c0-0.1,0-0.1,0-0.2
		c0.3-1.2-0.8-1.8-0.7-3c-0.1-1.2-1.1-1.1-1.4-0.1c-0.4,1.2-1.4-0.6-2,0.4c-0.3,0.6-0.7,0.7-0.7,0c1.1-0.3,1.8-2.5,0.7-3.5
		c-0.5-0.6-2-0.8-1.2-2C282.2,86.6,282.6,85.9,282.9,85.9L282.9,85.9z M338.4,89.4c0.3,0,0.4,1.1,1,0.8c-0.1,0.5-0.5,1.2-0.1,1.9
		c-0.1,0.3-0.1,0.5,0,0.6c0,0,0,0.1,0.1,0.1c0.3,0.4,1.1,0.5,1.4-0.2c0.5-0.3,0-1.6,0.5-1.3c0,0.6,0.4,1.3,1.2,1
		c0.7,0.3,0.5,1.9,0.7,2.8c-2.7,0-5.3,0-8,0c0.7-0.6,0.8-1.6,1.3-2.3c0.2-0.6,0.2-1.2,0.3-0.2c0.5,1,1.7-0.2,1.4-1
		c0.2-0.7-0.9-1.6,0-2C338.3,89.5,338.4,89.4,338.4,89.4L338.4,89.4z M223.7,89.9c0.1,0,0.2,0,0.3,0.1c0.8-0.1,1.6,0.5,2.1,1.4
		c0,1.2-0.4,2.7-1.3,3c-0.2,0.3-0.2,0.6-0.2,0.8c-1.6,0-3.3,0-4.9,0c-0.3-0.3-0.4-0.6-0.3-1.1c-0.1-1.3-1.1-2.1-1.9-2.1
		c0.4-0.5,0.5-1.2,0.5-1.9c0.6-0.6,0.3,0.8,0.7,1.1c0.4,0.7,1.2,0.2,1.4,0.1c0.8,0,0.1,1.1,0.7,1.2c0.6-0.5,1.9-0.5,1.7-1.8
		c0.2,0.3,0.4,0.4,0.8,0.2C223.5,90.9,223.4,89.9,223.7,89.9L223.7,89.9z M165.1,96.7c0,0.2,0,0.3,0.1,0.5c-0.1,0.7-0.3,1.7,0.6,1.9
		c-0.7,0.9-0.3-0.9-1.1-0.7c-0.6,0.2-0.6,1.2-0.2,1.6c-0.9,0.3-0.3,1.3-1,1.9c-0.6,1,0.8,1.4,0.9,2.2c-0.6,0.3-0.1,2.1-1,1.1
		c0.2-0.6,0-1.2-0.6-1.4c-0.1-1-1.6-0.9-1.5,0.2c-0.2,0.9-0.1,2.6-0.7,2.9c-0.7-0.3-1.2,0.4-1.2,1c-0.4,0.3,0-1-0.5-1.3
		c-0.5-0.9-1.8-0.4-1.5,0.6c-0.4,0.6,0,1.4,0.1,1.9c-0.8-0.4-0.8,1.4-1.2,0.5c-0.8-0.4,0.2-1.3,0-2c0.3-0.8-0.8-2-1.4-1
		c-0.2,1-0.1,0.4-0.3-0.2c-0.6-0.8-0.7-2-1.7-2.6c-0.1-1.2,1.4-0.7,1.6-1.7c0.2-0.7,1.4-0.6,1.3-1.5c0-0.7,1.3-0.9,1,0
		c0.3,1.2,1.9,0.6,2-0.4c0.5,0.4,1.1,0.2,1.6,0.6c0.8,0,0.8-1.2,1.7-1c0.6-0.3,0.8-1.1,0.9-1.8C163.8,98,164.7,97.8,165.1,96.7
		C165.1,96.8,165.1,96.8,165.1,96.7L165.1,96.7z M361.8,97.5c0.1,0,0.2,0,0.2,0c-0.1,1.2-0.1,2.3-0.7,3.3c-0.3,0.1-0.5,0.4-0.6,0.6
		c-0.9-0.5-1.2-1.7-1.2-2.6C360.1,98.1,360.9,97.5,361.8,97.5L361.8,97.5z M182.9,99c0.1,0.1,0.1,0.2,0.1,0.4
		c-0.2,0.1-0.3,0.5-0.3,0C182.7,99.2,182.8,99.1,182.9,99z M359.5,104c0.1,0,0.1,0,0.2,0c0.3,0.6,0.9,1.2,1.3,1.7
		c0.1,0.6-1,0.4-1.3,0.7c0.2-0.7-0.7-1.6-1.1-0.7c-0.2,1-1,2.7-2.2,2.2c-0.3-1.1,1.1-2,1.1-3.1c0.1-0.3,0.2-0.5,0.3-0.7
		C358.3,104.1,358.9,104.1,359.5,104L359.5,104z M332.4,109.5c0.4,0,0.5,0.4,0.7,0.7c0.5,0.8,0.2,2-0.8,2.2
		c-0.4,1.1,0.2,2.6-0.9,3.5c-0.7,0.7,0.2,0.7,0.6,1c0.9,0.9-1.3,2.1,0.1,2.7c0.5,0.9-0.9,1-1.5,1c-0.8,0.4,0.6,0.6,0.9,0.6
		c0.9-0.1,0.8,1.1,1.4,1.2c-0.3-1-0.1-2.4,0.9-3.1c0.7-0.2,1.3-1,2.1-0.6c0.6,0.9,1,1.8,1.4,2.8c0.2,1.1,1.3,1.5,1.9,2.4
		c1,0.2,0.4,2,1.6,1.6c0.9,0.2,2.3,0.8,1.9,2c-0.6,1.6,1.7,0.7,1.8,0.7c-0.7,0.6-0.9,2.2,0.3,2.2c-0.2,1.5-2.1,1.8-2.3,3.2
		c0.5,0.7-0.2,1.1-0.8,0.8c-0.6,0.6-1.3-0.6-0.6-1c0.8-0.4,0.2-0.9-0.1-1.4c-0.3-0.6-0.2-1.9-0.8-2c-0.1,2.1,0.2,5-2.1,6.1
		c-1.1,0.3-2-1.7-3.3-1c-0.7,0.7-1.5,0-1.2-0.9c-0.3,0.3-0.4,1.6-1.2,2c-1,0.4-2,2-3.2,1.1c-0.4-0.2-1.3,1.1-1.9,0.2
		c-1.1-1,0.3-2.1,1.1-2.7c0.7-0.9,0.7,0.3,0.6,0.9c0.8-0.3,1.3-1.8,1.6-2.7c0.5-1.7-0.2-3.4-1.1-4.8c-0.4,0.2-1.1,0.1-1.1-0.5
		c0-1.1-0.7,0-1.3-0.1c-1.2,0.1-1.6-1.1-2-2c-0.8,0-1.2-0.7-1.2-1.4c-1.1-0.2-3-0.8-2.7-2.3c0.8-0.7,0.9-2.5,2.3-2.5
		c1.3,0.3-0.2,1.6,0.4,2.2c1.4,0.4,1.5-1.6,2.2-2.4c1-1,1.7-2.5,3.1-3.2c0.8-0.3-0.5-0.5-0.6-0.9c-0.5-1.3,0.6-2.8,1.8-3.3
		C331.8,111.9,331.1,109.8,332.4,109.5L332.4,109.5z M355.9,113.1L355.9,113.1c0.5,0-0.3,0.5-0.2,1.1c0.6,1.1,1.9-0.3,2.8-0.2
		c0.5-0.1,1-1,1.3-0.7c-0.2,0.8,0.7,1.1,1.2,0.9c-0.2,0.6,0.4,1.8-0.6,1.8c-0.9,0.5-0.7,2.1-0.2,2.9c1.1,0.8,1.7,2.1,2.3,3.2
		c0.2,1.6-1.2,3.8-3,2.9c-0.1-0.3,0.4-2.2-0.8-1.6c-0.6,0.7-1,1.8-0.5,2.6c-0.6,0.3-0.6,1.2-0.9,1.6c-0.7,0.1-1.1,1-1.7,0
		c-0.7-0.9-0.2-0.5,0.4-0.1c1.5,0,1.5-2,0.7-2.9c-0.7-1.5-2.8-0.2-3,1.1c-0.2,0.8-1.1,0.2-0.3-0.2c0-0.6-0.6-0.6-0.6-1.1
		c-1-0.3,0.8-0.5,0.6-1.2c0-0.8-1.1-1.2-1.7-0.7c-0.5-1.2,0.8-1.9,1.1-2.9c0.7-0.1,0.3-1.9,0.7-0.6c1.1,1-1.4,2.4,0,3.2
		c0.8,0.1,1.3-1,1.9-1.2c0.4,0.9,2,0.4,1.5-0.5c-0.5-0.4-1.1-1.3-0.1-1.4c0.8-0.5,0-1.9-0.8-1.2c-0.4-0.9-0.5-2-0.1-2.8
		c-0.5-0.5-1.3-1.2-0.5-1.8h0.1C355.8,113.1,355.9,113.1,355.9,113.1L355.9,113.1z M140.7,123.4c0.1,0.2,0.2,0.4,0.3,0.5
		c-0.2,0-0.5-0.1-0.7-0.2C140.5,123.5,140.6,123.4,140.7,123.4L140.7,123.4z M265.3,131.4C265.3,131.4,265.3,131.4,265.3,131.4
		C265.5,131.8,265.1,131.4,265.3,131.4z M370.5,132.2c0.7-0.1,0.4,0.8,0.4,1.2c0,1.2,0.9,0.3,0.9-0.4c0.8-1.1,2.1,0.6,1.2,1.3
		c0.4,0.6,1.3-0.5,1.6-0.8c0.2,1.2-0.2,2.4-1,3.3c-1.2,1.2-2.4,3.2-4.4,2.9c-1-0.3-0.2-1.2,0.4-1.4c0.7-1.1-0.9-0.4-1.3-0.9
		C367.8,135.6,368.3,132.7,370.5,132.2L370.5,132.2z M356.4,136.1c0.5,0,0.7,0.6,1,0.9c1.2,0.7,0.1,2-0.3,3c-1,0.5-1.2,1.8-0.7,2.7
		c-1.8-0.2-3.4,0.6-5.2,0.7c-1.4,0-0.9-1.6-0.3-2.3c1.6-1.7,2.9-3.9,5.1-5C356.3,136.1,356.3,136.1,356.4,136.1L356.4,136.1z
		 M143.1,139.9C143.1,140,143.1,140,143.1,139.9c0.4,0,0.4,0.6,0.6,0.8c0.1,0.4,0.8,0.6,0.7,0.1c-0.2-0.4-0.1-0.2,0.2,0
		c0.4,0.2,0.7,0.7,1.2,0.6c0.4,0.4-0.2,0.6,0,1c0.1,0.3-0.2,0.5,0.1,0.8c0.2,0.3-0.1,0.6-0.3,0.2c-0.4-0.4-0.7,0.1-0.4,0.6
		c-0.2-0.1-0.4,0.2-0.6,0.1c-0.2,0.2,0.1,0.6-0.2,0.7c-0.1,0.4,0.2,0.9,0.5,1.2c0.2,0,0.3,0.1,0.1,0.2c-0.3,0.2,0.1,0.7,0.4,0.5
		c0.1,0,0.3-0.1,0.4-0.2c0.2-0.2,0.4-0.5,0.1-0.9c0.3-0.2,0.5,0,0.6,0.4c0.5-0.3,0.9-0.7,1.4-1c0.5,0.5,1.3,0.9,1.6,1.6
		c-0.3-0.2-0.6,0.2-0.3,0.5c0.4,0.7,1.3,0.8,1.7,1.4c-0.2,0.6,0.4,1.1,0.8,1.5c0.1,0.1,0.1,0.2,0.1,0.3c-0.5,0.3-0.8,0.9-0.6,1.5
		c-0.1,0.1-0.1,0.4,0,0.6c-0.3,1-1.8,1.8-1.1,2.8c0.5,0.4,0.9-0.3,1.2-0.5c0.1,0,0.1,0,0.2,0c0.1,0.2,0.4,0.7,0.6,0.5
		c0.2,0.1,0.4,0.3,0.5,0.4c0,0,0,0.1,0,0.1c0,0.2,0.1,0.3,0.3,0.3c0,0.2,0,0.5-0.3,0.7c-0.7,1.3-0.6,0.1-0.8-0.6
		c-0.7-0.7-1.5,0.9-1.8,0c-0.9-0.9-1.4,0.9-0.7,1.5c0.3,0.3-0.7,1.1-0.9,1c-0.3-1.2-2.5-1.1-2.1,0.4c0.6,0.9,0.2,0.9-0.7,1
		c-0.7,0.4-1.9-0.6-2.1,0.6c0.5,1.1-0.9,0.3-1.5,0.7c-1.1,0.3-2.8,0.5-3.1,1.7c0.4,1.2,2,0.1,2.8,0.2c0.7-0.2,1-0.8,1.7-0.6
		c0.8,0.1,0.6-1.1,1.3-0.6c0.9-0.1,0.8,1.5,1.8,1.1c-0.3,0.5-1.2,0.3-1.5,1c-0.3,0.5-0.8-0.7-1.3-0.2c-0.2,0.3-0.7,1.2-0.6,0.4
		c0-1.1-1.8-0.7-1.3,0.3c-0.5,0.7-0.9-0.4-1.5,0.2c-0.7,0.4-0.9-1.1-1.4-1.5c-0.1-0.2-0.3-0.3-0.5-0.3c0-0.2,0-0.3,0.3-0.5
		c0.2-0.2-0.3-0.7,0.1-0.6c0.6,0.1,0.6-0.6,0.4-0.9c-0.2-0.7-0.9-1.1-0.9-1.8c0.6,0.1,0.8,1.1,1.5,0.8c0.3-0.2,0-0.8,0.5-0.8
		c0.2-0.3,0.7,0,0.9-0.4c0.2-0.2-0.3-0.9,0.1-0.6c0.3,0.4,1,0.8,1.3,0.1c0.1-0.2,0-0.5,0.3-0.3c0.4,0.2,1,0.1,1.3,0.5
		c0.5,0.1,0.3-0.6,0.4-0.8c0.4-0.1,1,0.2,1-0.4c0.1-0.5-0.3-1.1-0.4-1.5c0.3-0.3-0.1-0.7-0.4-0.6c-0.1-0.3,0.1-0.6,0-0.9
		c0.3,0.4,0.6,0,0.8-0.2c0.2,0.4,0.6-0.1,0.8,0.2c0.4,0.4-0.2,0.1-0.4,0.3c-0.3,0.4,0.5,0.4,0.6,0.7c0.2,0.5,1,0.5,1.1-0.1
		c0.3,0.3,0.7,0.3,1,0.2c0.5,0.2,0.9-0.5,1-0.9c-0.1-0.3,0.4-0.4,0.2-0.8c0.4-0.3-0.3-0.6-0.3-1c-0.2-0.5-0.5-1.1-0.5-1.6
		c-0.1-0.4-0.5,0.1-0.6-0.1c-0.2-0.2-0.5-0.4-0.2-0.7c0.5,0.1,0.5-0.5,0.2-0.7c-0.2-0.3-0.4-0.3-0.7-0.2c-0.3,0.1-0.8-0.2-0.7-0.4
		c0.4,0.1,0.5-0.4,0.4-0.7c0.2-0.4,0.3-0.9-0.1-1.3c-0.1-0.4-0.7-1-1.1-0.5c-0.2,0.3,0.3,0.6-0.2,0.6c-0.3,0.3-0.8,0.4-1.3,0.2
		c0-0.1-0.1-0.1-0.1-0.2c0.1-0.2,0-0.6-0.2-0.8c0-0.2,0.1-0.3,0.2-0.4c0-0.3-0.2-0.6-0.5-0.6c-0.1-0.1-0.2-0.2-0.3-0.3
		c0.2-0.3-0.3-0.6-0.3-0.9c-0.1-0.5-0.6-0.4-0.8-0.7c0.1-0.2-0.5-0.8,0-0.6c0.1,0.2,0.3,0.5,0.6,0.4c0.3,0.4,0.7,0,0.4-0.4
		c-0.2-0.4-0.7-1-0.6-1.3c0.3,0,0.2-0.4,0-0.6c0-0.2,0.3,0.4,0.5,0.4c0.4,0.2,0.6-0.2,0.2-0.5c-0.1-0.3-0.4-0.5-0.5-0.7
		C143.3,140.5,142.9,139.9,143.1,139.9L143.1,139.9z M278.6,142.2C278.6,142.2,278.6,142.2,278.6,142.2
		C278.4,142.4,278.5,142.3,278.6,142.2z M277.4,142.8c-0.4,0.9,0.1,2.2-0.9,2.8c-0.4,0.8,0.9,0.1,1.2,0.5c0.8,0.2-0.1,1.9,1.1,1.3
		c0.4-1.6,0.3,0,1.3,0.2c1,0.2,0.6,1.1,0.7,1.8c0.4,0.9,0.7,2.1-0.5,2.5c-0.5,0.6-1.3,0.8-2.1,0.8c-0.3,1.3-2.4,2-3,0.7
		c-0.3-0.5-1.4-1.5-0.4-1.9c0.2,0,0.1-1-0.5-1.3c0.2-0.6-0.8-1.6-1-0.6c-0.1,0.2-0.1,0.3-0.1,0.3c0.1,0.4,0.4,0.8,0.8,0.8
		c-0.3,0.5-1,1-0.6,1.8c0.2,0.7,0.9,1.3,1.1,1.9c-0.6,0-1.7,0.1-2.1,0c-0.1-1.1-1.4-0.7-1.9-0.2c-1-0.6-2.2,0.5-2,1.6
		c-0.5,0.3-1.5,0.2-1.2-0.4c0.7-0.3-0.2-1.8,0.8-1.1c1,0.3,1-1.2,0.1-1.4c-0.1-0.9-1.2-1.3-1.3-2.2c-0.9-0.8-1.2,0.8-1.7,1.2
		c-1.2,1-0.9,2.6-1.2,4c0.3,1.3,2.2,0.2,1.9-0.8c0.3,1.2,0,2.6,0.4,3.9c0.4,0.8,1.4-0.4,0.5,0.8c-0.4,0.9-1.5,2.2-1,3.1
		c1.6,0.4,2.3-1.8,1.9-3c0.7,0.1,1.7-0.2,0.5,0.5c-0.9,0.6,0.1,1.9,0.9,1c0.9-0.9,0,0.3,0,0.9c-0.1,0.5,0.8,0.7,0.1,1
		c-0.3,0.6-0.3,1.3-1.1,1.4c-0.7,0.7,0-0.3-0.7-0.5c-1.3-0.4-2.7,0.8-2.1,2.1c0.3,1.3,2.1,1.7,2.9,0.6c-0.5,1.3,0.9,2.4,1.4,3.4
		c-0.1,0.6,0.5,1.2,0.9,1c-0.5,0.9,0.6,2.1,1.3,1.1c0.6-0.6,0.3,1.2,1.1,1.2c0.5-0.1,0.3,0.9,1,0.8c-0.6,1.1,1.7,1.6,0.7,2.6
		c-0.6,0.9,0.4,1.9-0.4,2.7c-0.8,0.5-0.2,1.9,0.6,1c0.6-0.7,1.9,0.7,1.1,0.4c-1-0.3-2.4-0.1-2.9,1c-0.4-0.8-2-1.8-2.4-0.5
		c-0.3,0.7,1.1,0.9,0.5,1.4c-0.3,1,0.3,2.3,0.9,3.1c0.6,0.2,1.4,0,1.8-0.4c0.1-0.4,0.7,0.2,1.1-0.1c0.6,0.2,1.4,0.3,1.8,0.3
		c0.1,0.7,0.9,1.2,1.6,0.9c-0.1,0.8,1.3,1.3,0.3,1.9c-0.4,0.8-0.5,0.9-1,0.3c-1.3-0.5-1.4,1.3-1.2,2.1c-0.3,0.7,0.5,1.3,1,0.9
		c0.4,1.2,1.5-0.2,2.3,0.1c0.8-0.8,0.4-0.2,1.2,0.1c1-0.2,0.8-1.5,1.5-2c0.5-1.1-0.1,0.5,0.4,0.8c1,0.8,1.2-1.2,0.7-1.5
		c0.2-0.7,0.7-1.2,1.2-1.8c0.7-0.6,0.2-1.6-0.2-2c0.7-0.1,1.2-1.1,1.9-0.5c0.8,0.6,2.6-0.3,2-1.2c-0.3-0.1,0.8-0.5,0.6-1
		c0.3-0.8-1.4-0.6-0.6-1.2c0.4-0.6,1.3-1.6,0.3-2.1c-0.5-0.3,0.6-1.2,0.6-1.7c0-1,0.8-1.6,1.3-2.4c0.7,0,1-0.9,0.4-1.3
		c0.7-0.1,1.6-0.4,1.9-1.1c0.6,0.9,1.6,2.3,2.7,1.7c-0.3,0.6-1.8,1.5-0.8,2c0.8-0.2,0.1,1.1,0.2,1.3c-1.5,0.1-0.5,2.5,0.7,2
		c0.9-0.2-0.6,0.5-0.2,1.2c0,0.5-1,1.7,0.1,1.7c0.7-0.3,0.2,1.2-0.2,1.4c-1.1-0.4-1.6,1.7-0.4,1.5c-1.5,1.6-2.8,3.3-4.3,4.7
		c-21,22.4-41.7,45.2-63.1,67.2c-0.1-1.7-0.2-3.5-0.3-5.2c0-2,1.1-4,0.3-6c-0.5-2.9,0.1-5.8-0.1-8.7c-0.9-0.9-0.2-2.4-0.4-3.6
		c0-6.8,0-13.7,0.2-20.5c-0.7-1,0.1-2.2-0.1-3.3c0.1-1.2-0.1-2.6-0.5-3.7c1-2.6-0.6-5.7,1.2-8.1c0.2-0.7-0.7-0.9-0.3-1.6
		c-0.2-1-0.5-2-0.1-3c1.3,0.2,1.2-1.5,0.9-2.3c0-0.7-0.8-0.8-1-1.1c0.2-0.1,1.1,0.3,1.2-0.4c0-0.8-1-1.6-0.1-2.4
		c0.3-0.4,1.2-0.1,1-0.9c-0.2-0.7,0.5-1.6-0.4-2.1c-0.8-0.7-1.4,0.4-1.2,1.2c-0.3,0.5-0.4-1.5-0.2-1.8c0.5-1-0.7-0.9-0.6-1.5
		c0-1.6,2.1-2.7,1.6-4.3c-0.8-0.2-0.5-0.9-0.6-1.6c0.4,0.8,1.2-0.4,1.3,0c0.1,1.1,1.7,1.7,2.1,0.4c0.2-1.2,1.4-1.7,1.6-2.8
		c0.5,0.5,0.2,0.7-0.2,1c-0.1,0.5,0.2,1.1,0.2,1.6c0.4,0.4,0.9-0.1,1.2,0.5c0.7-0.1,1.3-0.9,1.7-1.5c0.7,1.6,3.1,1.1,3.3-0.6
		c0.3-0.6-0.2-1.2-0.5-1.5c-0.1-0.7-0.9-0.7-0.8-1.5c-0.3-0.5-0.6-0.7-0.2-1.3c-0.2-1,0.3-0.1,0.8-0.5c0.3-0.1,1,1,1.6,0.5
		c0.6,0.7,2,0.9,2.5-0.1c0.7-0.2,0.6,0.3,1.1,0.7c0.9,0.6,2.9,1.2,3.1-0.3c0.5-0.5,0.9-1.4,0.3-2c1-0.6-0.2,0.6,0.5,0.8
		c0.6,0.3,1.3-0.3,0.5,0.5c-0.6,0.7,0.5,1.6,1.1,0.8c0.8-0.4,0.8-1.7-0.1-1.5c1-0.4,0.4-1.5,1-2.1c0.4-0.8-0.6-0.7-1-0.8
		c0.2-1-1-1.8-0.4-2.8c0.9,0,1.3-1.1,1.8-1.7c0.4,0.5,0.4,0.6-0.1,1c-0.5,0.7,0,2.2,0.9,1.8c0.5-0.6,0.7-1.5,0.7-2.1
		c0.9-1.4-1.3-2.9-0.1-4.3c0.1-0.6,0.1-1.1,0.5-1.6c-0.1-0.8,0.2-0.9,0.9-1.1c0.4,0.3,1.2,0.2,1.5-0.4c0.3-0.2,0,1.4,0.8,1.2
		c0.8-0.5,0.9-1.8,2.1-1.9c0.5,0,1.1-1.2,1.1-1c-0.5,0.7,0.4,1.3,0.8,0.4c0.5-0.9,0.6-0.8,1.1-0.1c0.8,0.6,1.7-0.8,0.7-1.2
		c-0.8-0.1-0.4-0.5-0.6-1c-0.8-0.5,0.5-0.9,0.3-1.7c0.2-0.3,0.9-0.6,0.9-1.3c0.2-0.9,0.4-2.5,1.6-2.4c0.3,0.7,1.3,0.8,1.5,0
		c0.2-0.9,0.6,1,0.2,1.2c-0.8,0.4-0.5,2.2,0.5,1.5c0.2-0.5,1.5-0.8,1.1,0.1c0,1,1.5,1.1,1.6,0.1c0.2-0.6-0.2-1.8-1-1.5
		c-0.2-0.5,1-0.1,0.6-0.9c0-0.9,1.2-1.2,1.4-2.2l0,0.2l0,0c0.3,1-0.9,0.8-1,1.6c-0.4,0.8,0.6,1.3,1,0.5c0.4-0.6,0.7-1.4,1.4-1.9
		c0.2,1.2,1.3,2,2.1,2.7c-0.1-0.6-0.2-1.2-0.4-1.4c-0.5-1.4,1-2.3,2.1-2.4c1.1,1,1.8-1,2.5-1.6L277.4,142.8z M273,149.9
		c-0.1-0.2-0.1-0.4-0.1-0.6c-0.1-0.1-0.2-0.2-0.4-0.4C272.7,149.5,272.8,150.1,273,149.9L273,149.9z M277.2,143.2
		C277.2,143.2,276.8,144,277.2,143.2C277.2,143.3,277.2,143.2,277.2,143.2z M278,145c0,0,0.1,0,0.3,0.1
		C278.3,145.3,277.9,145,278,145z M276.4,151.3c-0.5,0-0.9,0.3-1.4,0.3C275,152.4,276.9,152,276.4,151.3z M243.6,152.9
		c0.4,0,0.7,0.1,1,0.3c1.4,1.1,0.6,3.1-0.1,4.4c0.1,0.8-0.2,1.9-1.2,1.7c-0.9,0.1-0.7-0.9-0.2-1.3c0.5-0.4,0.7-1.9-0.2-1.9
		c-0.5,1.2-1.2,2.4-2.3,3c0.2-0.5,0.2-1.6-0.5-1.7c-0.7,0.8-0.5,2.3,0.1,3.1c0.3,0,1,0,0.9,0.6c0.1,0.8-0.6,1.1-1.1,1.2
		c-0.6,0.1-1-0.9-1.6-0.1c0.1-0.7,0.9-1.1,0.9-1.8c-0.7-1.2-0.2-2.7,0.4-3.9c0.4-0.5,0.8-2,1.4-1.2
		C242.7,155.9,242,153.1,243.6,152.9L243.6,152.9z M186.3,157c0.2,0,0.4,0.1,0.5,0.3c0.2,0.4,0.4,2.1,0.9,1.1
		c0.3-1.3,2.5-0.2,1.4,0.7c0.1,0.5-0.1,1.2-0.5,1.5c0.2,0.2,0.2,0.6,0,0.9c-0.5,0.8-1.1-0.2-0.9-0.8c0,0-0.1,0-0.1,0
		c-0.9,0.6-1.9-0.7-1.9-1.6c0.4-0.7-0.6-1.7,0.2-2.2C186.2,157,186.2,157,186.3,157L186.3,157z M187.8,160.9c0.4,0.1,0.7,0,0.9-0.2
		c-0.1-0.1-0.3-0.2-0.5-0.2C188,160.6,187.9,160.7,187.8,160.9L187.8,160.9z M230.9,157.6c0.2,0,0.4,0,0.6,0.1
		c1.1,0.4,0.2,1.9,1.1,2.4c0.6,0.5,0.9-0.1,1-0.7c0.4-0.3,1.1,0,1.5-0.5c1.1-0.1-0.6,1,0.4,1.3c1.2-0.1,0.7,1.5,0.1,1.9
		c-0.4,0.7-0.9-0.1-1.4,0.2c-0.2,0.8,0.5,2.4,1.6,2c-0.1-0.6,0.9-1.2,1.4-1.4l0.2-0.1l0.2-0.1c-0.2,1.3,0.4,2.6-0.1,3.9
		c-0.4,0.7,0.8,0.1,1-0.3c0-0.9,1.7-0.4,1.3,0.3c-1.1,0.1-0.7,1.5-0.6,2.2c0,0.5-0.4,2-0.5,0.7c-0.3-1-1.5,0.2-0.9,0.8
		c-0.1,0.8-1.8,0.4-1.6-0.3c0.6-0.1,0.9-0.6,0.3-1c-0.7-1.2,0.4-2.9-0.3-4.1c-0.1-0.1-0.2-0.2-0.2-0.3c-0.9,1.5-0.2,3.4-1,4.9
		c-0.4,1.1-0.6-0.7-1.4-0.5c-0.4-0.2-1.1-0.6-1.3,0.2c-0.2,1.2,1.4,0.1,1.4,1.1c0.5,0.7-0.1,1.5-0.8,1.8c-0.5,0.8-0.9-0.3-1.6-0.3
		c-0.9,0-1.4,0.8-0.9-0.5c-0.2-0.9-1,0-1.3-0.1c-0.9-0.4-1.2,1.7-1.4,0.3c-0.5-1.2,1.4-1.3,1.1-2.4c0-0.9-1-0.4-1.2-0.9
		c0-0.7,0.8-1.2,0.5-2c-0.3-0.8-0.9-1.8-0.1-2.5c0.3-0.7-0.3-0.8-0.8-0.8c-0.7-0.2-0.3-0.9,0.3-0.9c1.1-0.1,2.4-0.6,2.4-1.9
		c0.2-0.8-0.3-2.5,1-2.5C230.8,157.6,230.8,157.6,230.9,157.6L230.9,157.6z M235.9,164.6c0.1-0.1,0.1-0.2,0.2-0.3
		c-0.1,0-0.2,0.1-0.2,0.1C235.8,164.4,235.8,164.5,235.9,164.6L235.9,164.6z M277,157.8c0,0,0.1,0,0.1,0
		C277.1,158.5,276.7,157.9,277,157.8z M196.9,161.9c-0.3,2.9,0.5,6.3-1.5,8.6c-0.4,1.4-2,1-3,1.4c-0.3,0.5-1.1,0.6-1-0.2
		c-0.4,0.4-1.2,0.5-1.5-0.1c-0.3-1-1.3-2.3-0.5-3.3c0.9-0.7,1.1,0.7,1,1.3c0.2,0,0.6-1,1.2-0.7c0.7-0.7,0.3-2.1,0.6-3.1
		c0.1-0.5,0.9-1.8,1-1.2c-0.2,1.6,2.1,1.2,2.2,0c0.6-0.6-0.1-2.1,1.1-2.4C196.6,162.1,196.8,162,196.9,161.9L196.9,161.9z
		 M336.8,162c0,0,0.1,0,0.2,0C337,162.6,336.5,162,336.8,162z M161.4,163L161.4,163c0.2,0,0.4,0.1,0.6,0.1c1.1,0.5-0.1,1.8,0.4,2.5
		c1.5,0.2,1.6,2.4,0.6,3.3c-1.3,0.3-0.5,2.8-2.2,2.6c-1.3-0.8,0-2.5,0.1-3.5c0.4-0.9-1.2,0.3-1.8,0.3c0.6-1.7,0.1-4.3,2-5.2
		C161.2,163,161.3,163,161.4,163L161.4,163z M292.3,163L292.3,163c0.2,0,0.4,0,0.5,0c-0.5,0.3-1.2,1-0.5,1.5c1.1,0,0.4,1.3,0,1.8
		c-0.4,0.2-0.4,0.9-0.4,1.3c0,0-0.1,0-0.1,0c-0.1,0-0.1,0.1-0.1,0.2c-0.2-0.7-1.1,0.4-1.3-0.4c0.2-1.5-0.1-3.7,1.6-4.4
		C292.2,163,292.2,163,292.3,163L292.3,163z M302.7,165.4c0,0,0.1,0.2,0.3,0.5c0.1,1.1,1.1,0,1.6-0.2c0.4,1,0.1,2.4-0.9,2.9
		c-0.8,0.3-1.1-0.5-1.7-0.7c-1.2,0.2-0.3,1.6,0.5,1.7c1.4,0.4-0.7,0.7-0.7,1.5c-0.7-0.5-1.5-1.3-1.2-2.3c0.5-0.5-0.6-0.5-0.3-1
		c0.7-0.1,0.4-1.3,1.1-1.3c0.5,0.6,1.4,0.2,1.2-0.6C302.6,165.5,302.6,165.3,302.7,165.4L302.7,165.4z M293.7,166.6L293.7,166.6
		c0.3,0.6,0.8,1,1.5,0.8c1.1-0.5,1.1,1,0.4,1.5c-1.1,0.5-0.7,1.8-0.1,2.5c-0.3,0.5,0.5,0.8,0.3,1.3c-0.4,0.1-0.9,0.2-1.3,0.3
		c-0.5-0.3-1.1-1.1-1.6-0.2c-0.7-0.6-1.9,0-2,0.9c0.5,0.9-0.5,0.7-1.1,0.4c-0.4-1.1,1-1.9,1.8-2.2c1.2-0.5,0-1.7,0-2.6
		c0.1-0.5-0.1-1.1,0.1-1.5c0,0.1,0,0.1,0,0.2c0.2,0.3,0.2,0,0.2-0.4C292.7,167.7,293.1,167,293.7,166.6L293.7,166.6z M332.9,170.7
		C332.5,171.6,332.1,171,332.9,170.7z M339.8,171.9c0,0,0.1,0,0.2,0C340.1,172.5,339.6,172,339.8,171.9z M362,177
		c0.6,0.7,1.9-0.3,1.8,0.9c0.8,1.1,1.8-0.6,2.8-0.5c0.7-0.2,0.9-0.1,0.4,0.5c-0.5,1.3,0.4,3-0.9,4c-0.6,0.9,0.2,2,1.2,1.6
		c-0.4,0.9-1.6,1.1-2.2,1.6c0,1.3-1.6,1.1-2.4,0.9c-1.1,0.4-1.6,1.7-2.6,2.2c-0.5-0.8-1.4-1.1-2.2-1.5c-0.1-0.6,0.1-1.6-0.9-1.3
		c-0.9,0.7-0.8,2.7-2.4,2.3c-0.7-1.3,1.7-1.6,1.4-3c0.3-1.2,1.4-1.7,2.5-1.8c0.2-0.6,0.3-1.1,0.6-1.6c0.2-1.1-0.8-2.3,0.4-3.2
		c0.5,0.2,1.6,0.8,0.6,1.2c-0.6,1.2,1.4,1.2,2.1,0.9c0.8-0.4,0.3-1.5-0.5-1.4C362.1,178.3,361.3,177,362,177z M303.4,184.7
		c0.2,0,0.4,0.3,0.5,0.7c-0.6-0.2-0.9,0.3-0.8,0.6c-3.3,2.5-6,5.8-9,8.7c-22.1,23-43.4,46.8-65.9,69.4c-0.1,0.1-0.2,0.1-0.3,0.1
		c0-0.6-0.1-1.2-0.2-1.8c23-25.6,46.9-50.5,70.1-75.9c0.2,0.2,0.5,0.4,1,0.3c0.7-0.5,0.3,1.4,1.3,0.9c0.9-0.8,1.1-2.5,2.6-2.5
		C303,184.8,303.2,184.7,303.4,184.7L303.4,184.7z M161.9,186c1.2-0.1,0.8,1.6,0.1,2c1,0.1,1.7,1,1.8,1.9c0.4,1.3-0.9,2-1.3,3
		c-0.1,1.2-1.9,1.5-2.3,0.3c-0.1-1-1.6-2.2-0.5-3c1.1-0.2,0.9-1.7,1.7-2.1C160.4,187.9,160.8,185.9,161.9,186L161.9,186z
		 M161.4,188.1c0.1,0,0.2,0,0.4,0c0.1,0,0.1,0,0.2-0.1c0,0-0.1,0-0.1,0C161.7,188,161.6,188,161.4,188.1L161.4,188.1z M340.5,190.3
		c-0.6,0.8,0,1.5,0,2.4c-0.7,2.6-2.4,4.9-4,7.2c-0.2,1-1.7,1.4-2.1,0.3c-0.2-0.9-1.2-1-1.5-1.8c0-1.3-1.6-0.4-2.2-1.1
		c0.7,0,1.5-0.3,1.4-1.1c-0.2-1.3,0.8-2.2,1.7-2.9c0.9-0.5,0.4,0.8,1.2,0.9c0.6-0.6,1.6-0.8,2.1-1.5c0.1-1.5,2-1.2,2.9-1.9
		C340.1,190.7,340.3,190.5,340.5,190.3L340.5,190.3z M336,203.4C336.9,203.5,335.1,203.6,336,203.4z M314.1,217.9
		c0.9,0.1,1.4,1.1,1.2,2c-0.1,1-1.1,1.4-1.5,2.1c-0.3,0.9-1.4,0-1.4,1c-0.1,0.6-1.3,0.7-0.9,1.2c0.8,0.6,0.3,1.5-0.4,1.7
		c0.6,0.6,0.7,1.6-0.1,2.2c-1.6,1.1-2.7-1.9-1.2-2.6c-0.7-0.8,0.2-2.3,0.7-3.1C311.6,220.9,311.9,218.2,314.1,217.9L314.1,217.9z
		 M309.8,225.6c0.1,0.1,0.3,0.3,0.4,0.3c0.3,0.2,0.6,0.2,0.9,0.1c-0.2-0.2-0.5-0.4-0.9-0.4C310.1,225.6,310,225.5,309.8,225.6
		C309.8,225.6,309.8,225.6,309.8,225.6L309.8,225.6z M318.4,222.2c1.1-0.1,1.5,1.5,0.7,2.1c0.2,0.5,0.5,1.1,0,1.6
		c0.2,0.9,0.7,2.5-0.6,2.9c0.6-0.3,1.4,0.2,1.3,0.8c0,0.6-1.1,1.5,0.2,1.3c-0.1,0.7-0.5,1.4-1.1,1.7c-1,0.7-2.2,0.2-3.2-0.1
		c-0.6-0.6-1.6-0.8-2-1.6c0.1-0.9,0.7-1.8,1.4-2.5c-0.6-1.2,0.4-2.5,1.5-3.1C318.2,225.1,316.8,222.6,318.4,222.2L318.4,222.2z
		 M305.1,226.6c-0.1,0-0.1,0-0.2,0c-1.2-0.1-0.9,2.1,0.2,1.6C306,228,305.9,226.6,305.1,226.6L305.1,226.6z M324.7,240.7
		c0.1,0.1,0.2,0.1,0.3,0.2c0,0,0,0,0,0c0.4-0.1,0.7,0.2,0.8,0.5c0.9,0.6,1.7,1.2,2.4,1.8c0.9,0.5,1.8,1.4,1.2,2.4
		c-0.4,0-0.6,0.6-1.1,0.4c-0.9-0.2-0.6-1.3-1.3-1.5c-1.3,0.7-3.1-0.6-2.6-2.1c0-0.4,0.4-0.5,0.5-0.7c-0.3-0.3-0.5-0.7-0.3-0.9
		C324.8,240.9,324.8,240.8,324.7,240.7L324.7,240.7z M324.8,240.9c0.1,0.1,0.1,0.3,0.2,0.4c0.3,0.3,0.2,0.4,0.1,0.5
		c0.4,0.3,0.9,0.4,0.8-0.3c0-0.1,0-0.1-0.1-0.2c-0.3-0.2-0.5-0.3-0.8-0.5C324.9,240.9,324.9,240.9,324.8,240.9L324.8,240.9z
		 M254.5,247.9c-0.1,0-0.2,0-0.4,0.1C253,249.4,255,248,254.5,247.9z M231.4,270C231.4,270,231.3,270,231.4,270
		C231.3,270,231.4,270,231.4,270L231.4,270z M172.7,283.6L172.7,283.6c0.2,0,0.3,0,0.4,0.1c-0.2,0.9-1.1,1.5-1.5,2.2
		c-1.2-0.1-0.7,1.6-1.7,2c-0.6,0.6-2,1.4-1.5,2.3c-0.4,0.7-0.4-1-0.9-1.3c-0.7-1-0.9-2.1-0.1-3.1c0.5-1.5,2-2.1,3.5-2
		C171.4,283.8,172.2,283.6,172.7,283.6L172.7,283.6z M152.6,298.1c0.5,0,1.3,0.5,1.6,1.1c0.4,0.6-0.1,1.1-1,1.1
		c-0.9,0-1.6-0.5-1.6-1.1S152,298.1,152.6,298.1z M161.4,322.2c2.4,0.8,4.8,1.7,6.9,3c-0.5,0.9-1.5,1.3-2.4,1.6c-1,0-0.9,1.4-2,1.2
		c-2.1-0.8-2.4-3.5-2.5-5.4l0-0.1L161.4,322.2z M176.5,328.9L176.5,328.9c-1.3,0.9-2.4,2.1-3.7,2.9c-0.8,0.7-2.8,1.1-2.8-0.4
		c1-2,3.7-2.4,5.7-2.4C176,328.9,176.2,328.9,176.5,328.9z M191.6,329.7c0.4,1.5,0.3,3-0.1,4.5c0,0.6-0.2,0.8-0.5,0.9
		c0.4,3.3,0.9,6.6,1.4,9.9c0.4,0.9-0.1,1.4-0.9,1.5c-2.3,0.4-4.7,0-6.9-0.6c-3.7-1.3-7.6-1.8-11.5-1.7c1.9-4.3,4.4-8.3,7.7-11.7
		c0.1-0.2,0.2-0.3,0.3,0c0.9,1.9,3.1,2.5,5,2.9c1.2,0.6,2.4,0.1,3.6-0.4c-0.3-0.1-0.5-0.1-0.7-0.1c-1.9,0.7-4-1.7-3-3.5
		c1.3-1.6,3.7-0.6,5.2-1.6l0,0L191.6,329.7z M191,334.6c-0.4,0.1-0.8,0.3-1.2,0.4c0.4,0.1,0.9,0.2,1.2,0.1
		C191,335,191,334.8,191,334.6L191,334.6z M146.6,369.3l0.1,0.2l0,0c1.5,1.8,3.7,2.8,6,3.1c1.6,0.3,3.3,1.4,4.9,1
		c0.7-1.3,0.4,0.4,0.1,1c-1.2,3.1-3.7,5.4-5.4,8.2c-0.7,1.3-1.7,2.3-2.6,3.3c-0.1,0-0.2-0.1-0.3-0.1l-1.2-0.5l-0.5,0.1
		c-0.5,0.1-1,0.3-1.5,0.5c-0.3-4.6-0.1-9.2-0.1-13.8C146.5,371.3,146.4,370.3,146.6,369.3L146.6,369.3z M162.8,374.5l0,0.2
		c-0.7,6-1.9,11.9-3.6,17.6c-0.8,2.4-1.7,4.8-2.8,7c1-6.5,2-13,3.4-19.4C160.5,378,161.9,376.5,162.8,374.5L162.8,374.5z
		 M192.2,382.6c2,0.1,2.9,2.5,2.5,4.3c0.4,1.9-2.9,2.6-3.4,0.7c-1.5-1.3-1.7-4.3,0.5-5C191.9,382.6,192,382.6,192.2,382.6
		L192.2,382.6z M156.3,384.2c-1,6.2-2.1,12.5-3.1,18.7c-0.2,0.9-1.1,0.9-1.6,0.4c-1.2-0.1-1.6-1-1.8-2c-0.3-0.6-0.5-1.2-0.7-1.8
		c0.1-0.1,0.3-0.4,0.8-1.7c1.4-3.3,3.3-7.9,3.4-8.4l0.1-0.4l-0.4-0.5c0.2-0.3,0.5-0.6,0.8-0.8C154.6,386.5,155.4,385.3,156.3,384.2
		L156.3,384.2z M148.4,387.3c0.1,0,0.1,0,0.2,0c0.3,0,0.7,0.2,1.3,0.6c0.4,0.5,0.9,1,1.3,1.5c0,0,0,0,0,0c-0.1,0.2-0.2,0.4-0.3,0.6
		c-0.1,0.2-0.8,1.6-1.5,3.2c-0.8,1.8-1.2,2.5-1.3,2.7c-0.5-2.1-0.9-4.2-1.1-6.3l0.2-0.2l0.4-1C147.8,387.5,147.9,387.3,148.4,387.3
		L148.4,387.3z M145,394.3c0.3,1.5,0.7,3.1,1.2,4.6c-0.2,0.1-0.4,0.1-1.6-0.6c-0.8-0.4-1-0.5-1.4-1l-0.5-0.6l0.3-0.2l0.3-0.2
		l0.1-0.7c0-0.4,0.1-0.8,0.1-0.8c0.1-0.2,0.9-0.5,1.2-0.5L145,394.3L145,394.3z M129.3,403.5c0.1,0,0.1,0,0.1,0c0,0,0.1,0,0.1,0.1
		c0,0.1-0.2,1-0.4,2l-0.4,1.9l-0.3-0.2c-0.3-0.2-1.9-1.6-2.1-1.9c-0.2-0.2-0.1-0.5,0.1-1c0.1-0.3,0.4-0.4,1.9-0.8
		C128.9,403.6,129.2,403.5,129.3,403.5L129.3,403.5z M188.1,404.4L188.1,404.4L188.1,404.4c0.1,0,0.1,0,0.1,0.1
		c0.7,1.4,2.7,1.5,3.9,1.7c-0.2,1.2,0.5,2.6-0.3,3.6c-1.6-0.3-3.5-0.6-4.6,0.8c-1.3,1.2-1.5,3.6-3.1,4.4c-1.6,0-2.7-1.5-4.2-2
		c-0.9-0.7-1.2-2.3-0.1-2.9c0.5-0.4,1.3-1.9,0.3-2c-0.6,0.1-1.3,1.6-1.4,0.7c-0.1-1.3-1.4-2.7-0.3-3.9c2.8,0.5,5.8,0.8,8.7,0.2
		C187.5,405.2,187.9,404.5,188.1,404.4L188.1,404.4z M135,421C135,421,135,421,135,421c0.1,0.1,0,0.1-0.1,0.1c-0.1,0-0.1,0-0.1-0.1
		C134.9,421,134.9,421,135,421z M134.1,422.6C134.1,422.6,134.1,422.7,134.1,422.6c0,0.1-0.1,0.2-0.1,0.1c0,0,0-0.1,0-0.1
		C134,422.6,134.1,422.6,134.1,422.6L134.1,422.6z M124.8,430.2C124.8,430.2,124.8,430.2,124.8,430.2c0,0.1-0.1,0.2-0.1,0.1
		c0,0,0-0.1,0-0.1C124.7,430.2,124.8,430.2,124.8,430.2L124.8,430.2z M119.9,440.4C120,440.4,120,440.4,119.9,440.4
		c0.1,0,0.1,0.1,0.1,0.1c0,0-0.1,0.1-0.1,0C119.9,440.5,119.9,440.5,119.9,440.4C119.9,440.4,119.9,440.4,119.9,440.4L119.9,440.4z
		 M119,443.9C119,443.9,119,443.9,119,443.9c0.1,0.1,0.1,0.2,0.1,0.2c0,0-0.1,0-0.1,0C118.9,444,118.9,444,119,443.9
		C119,443.9,119,443.9,119,443.9L119,443.9z M121.3,445c0.1,0.1,0,0.2-0.2,0.2c-0.2,0-0.2,0,0-0.1C121.1,445,121.2,445,121.3,445
		L121.3,445z M119.6,445.1c0,0,0.1,0,0.1,0c0.2,0.1,0.2,0.1,0.1,0.2C119.8,445.3,119.7,445.2,119.6,445.1
		C119.6,445.1,119.6,445.1,119.6,445.1L119.6,445.1z M190,448.2C190.1,448.2,190.1,448.2,190,448.2
		C190.1,448.8,189.9,448.3,190,448.2z"/>
</g>
<g>
</g>
<g>
</g>
<g>
</g>
<g>
</g>
<g>
</g>
<g>
</g>
</svg>
